<svg width="1920" height="949" fill="none" xmlns="http://www.w3.org/2000/svg"><path fill="url(#a)" d="M0 0h1920v949H0z"/><path d="M601 431v-.4l169.2-210h.4V387h31.6v44h-31.6v58h-58.4v-58H601zm114-82.8l-30.8 41.2-5.6-2.4h33.6v-41.6l2.8 2.8zm228.694 141.2c-15.2 0-29.6-2.667-43.2-8-13.334-5.333-25.2-13.467-35.6-24.4-10.134-11.2-18.134-25.2-24-42-5.867-17.067-8.8-37.067-8.8-60 0-25.6 2.8-46.933 8.4-64 5.6-17.333 13.333-31.2 23.2-41.6 10.133-10.4 22-17.733 35.6-22 13.6-4.533 28.4-6.8 44.4-6.8 15.2 0 29.466 2.667 42.8 8 13.596 5.333 25.466 13.6 35.596 24.8 10.4 10.933 18.54 24.933 24.4 42 5.87 16.8 8.8 36.667 8.8 59.6 0 23.733-2.93 44.133-8.8 61.2-5.86 17.067-14 31.067-24.4 42-10.4 10.667-22.263 18.533-35.596 23.6-13.334 5.067-27.6 7.6-42.8 7.6zm-.4-55.6c13.333 0 23.733-3.467 31.2-10.4 7.466-7.2 12.666-16.933 15.6-29.2 3.2-12.267 4.8-25.867 4.8-40.8 0-14.667-1.6-27.733-4.8-39.2-2.934-11.467-8.134-20.533-15.6-27.2-7.467-6.933-17.867-10.4-31.2-10.4-13.067 0-23.334 3.467-30.8 10.4-7.467 6.933-12.667 16.267-15.6 28-2.934 11.733-4.4 24.933-4.4 39.6 0 14.667 1.466 28 4.4 40 2.933 12 8.133 21.6 15.6 28.8 7.466 6.933 17.733 10.4 30.8 10.4zm129.976-2.8v-.4l169.2-210h.4V387h31.6v44h-31.6v58h-58.4v-58h-111.2zm114-82.8l-30.8 41.2-5.6-2.4h33.6v-41.6l2.8 2.8z" fill="pink"/><path d="M633 414v-.4l169.2-210h.4V370h31.6v44h-31.6v58h-58.4v-58H633zm114-82.8l-30.8 41.2-5.6-2.4h33.6v-41.6l2.8 2.8zm228.694 141.2c-15.2 0-29.6-2.667-43.2-8-13.334-5.333-25.2-13.467-35.6-24.4-10.134-11.2-18.134-25.2-24-42-5.867-17.067-8.8-37.067-8.8-60 0-25.6 2.8-46.933 8.4-64 5.6-17.333 13.333-31.2 23.2-41.6 10.133-10.4 22-17.733 35.6-22 13.6-4.533 28.4-6.8 44.4-6.8 15.2 0 29.466 2.667 42.796 8 13.6 5.333 25.47 13.6 35.6 24.8 10.4 10.933 18.54 24.933 24.4 42 5.87 16.8 8.8 36.667 8.8 59.6 0 23.733-2.93 44.133-8.8 61.2-5.86 17.067-14 31.067-24.4 42-10.4 10.667-22.26 18.533-35.6 23.6-13.33 5.067-27.596 7.6-42.796 7.6zm-.4-55.6c13.333 0 23.733-3.467 31.196-10.4 7.47-7.2 12.67-16.933 15.6-29.2 3.2-12.267 4.8-25.867 4.8-40.8 0-14.667-1.6-27.733-4.8-39.2-2.93-11.467-8.13-20.533-15.6-27.2-7.463-6.933-17.863-10.4-31.196-10.4-13.067 0-23.334 3.467-30.8 10.4-7.467 6.933-12.667 16.267-15.6 28-2.934 11.733-4.4 24.933-4.4 39.6 0 14.667 1.466 28 4.4 40 2.933 12 8.133 21.6 15.6 28.8 7.466 6.933 17.733 10.4 30.8 10.4zm129.976-2.8v-.4l169.2-210h.4V370h31.6v44h-31.6v58h-58.4v-58h-111.2zm114-82.8l-30.8 41.2-5.6-2.4h33.6v-41.6l2.8 2.8z" fill="#343434" fill-opacity=".6"/><defs><radialGradient id="a" cx="0" cy="0" r="1" gradientUnits="userSpaceOnUse" gradientTransform="matrix(.00519 594.395 -1291.59 .01127 960 354.605)"><stop stop-color="pink" stop-opacity=".41"/><stop offset="1" stop-color="pink"/></radialGradient></defs></svg>