<svg width="25" height="22" fill="none" xmlns="http://www.w3.org/2000/svg"><path fill-rule="evenodd" clip-rule="evenodd" d="M24.316 19.317c0 1.482-1.183 2.683-2.643 2.683H2.643C1.183 22 0 20.799 0 19.317V3.753c0-1.185.947-2.146 2.114-2.146h10.663L17.058.032c.271-.1.572.042.67.316l.451 1.259h1.908c1.168 0 2.114.96 2.114 2.146v1.074c1.168 0 2.115.96 2.115 2.146v12.344zM2.114 2.68c-.583 0-1.057.481-1.057 1.073 0 .593.474 1.074 1.057 1.074h1.921c.007-.003.011-.009.018-.012L9.858 2.68H2.114zm15.371.097l-.561-1.569-1.085.399h.002L12.926 2.68h-.005L7.085 4.827H18.22l-.734-2.05zm3.66.976c0-.592-.474-1.073-1.058-1.073h-1.524l.769 2.147h1.812V3.753zM22.2 5.9H2.114c-.387 0-.745-.113-1.057-.298v13.715c0 .889.71 1.61 1.586 1.61h19.03c.876 0 1.586-.721 1.586-1.61V15.56h-2.115c-1.167 0-2.114-.961-2.114-2.147 0-1.185.947-2.146 2.114-2.146h2.115V6.973c0-.592-.474-1.073-1.058-1.073zm1.058 8.587V12.34h-2.115c-.583 0-1.057.48-1.057 1.073s.474 1.074 1.057 1.074h2.115zm-2.115-1.61H22.2v1.073h-1.057v-1.073z" fill="#fff" fill-opacity=".5"/></svg>