<svg width="80" height="80" fill="none" xmlns="http://www.w3.org/2000/svg"><path d="M38.734 20.438a41.215 41.215 0 00-5.593 8.375l-.813 1.625-.422-.282c-2.093-1.406-5.86-3.343-7.125-3.687-.531-.14-.765-.14-.89-.016-.266.266-1.47 4-1.86 5.75-.187.86-.36 1.64-.39 1.75-.047.125-.516.031-1.516-.297-1.875-.593-4.297-1.14-6.453-1.437-1.922-.266-4-.36-4.281-.188-.422.266-.047 4.39.703 7.75.484 2.125 1.375 4.907 2.14 6.64.313.688.532 1.267.5 1.298-.03.031-.843.187-1.828.36-2.047.343-4.64 1.046-6.531 1.75-1.688.624-1.703.75-.563 2.483 3.844 5.813 9.5 10.438 15.047 12.297 2.563.844 4.22 1.125 7.485 1.22l2.984.093-.234.719c-.328 1.046-.313 3.609.031 4.78.61 2.079 1.36 2.673 3.219 2.532 2.172-.14 4.687-1.437 6.218-3.187l.766-.86.594.813C41.344 72.656 44.109 74 46.64 74c2.672 0 3.453-.984 3.422-4.297-.016-1.406-.079-1.922-.407-2.86l-.39-1.14.797.11c1.593.218 5.562.093 7.437-.235 7.172-1.25 13.875-6 18.703-13.234 1.125-1.688 1.094-1.875-.406-2.453-1.844-.703-4.781-1.5-6.703-1.813-.969-.156-1.797-.312-1.828-.344-.032-.047.187-.625.5-1.312.765-1.734 1.656-4.516 2.14-6.64.75-3.36 1.125-7.485.703-7.75-.28-.173-2.359-.079-4.28.187-2.157.297-4.579.843-6.454 1.437-1 .328-1.469.422-1.516.297-.03-.11-.234-.984-.468-1.969-.422-1.78-1.078-3.953-1.547-5.062-.297-.688-.516-.719-1.688-.25-1.281.5-4.39 2.094-5.562 2.844a48.97 48.97 0 01-1.235.78c-.14.095-.468-.421-1.062-1.624a52.866 52.866 0 00-1.719-3.094c-1.672-2.703-4.562-6.265-5.094-6.265-.156 0-.703.484-1.25 1.125zm2.61 1.796c3.562 4.485 6.234 9.922 7.172 14.578.765 3.782.453 8.282-.844 12.157-.39 1.172-1.625 4.187-1.766 4.328-.031.031-.234.094-.484.156l-.422.11v-1.094c0-3.078-2.469-6.719-5.031-7.39-.625-.173-.782-.157-1.422.155-.828.407-2.219 1.844-2.828 2.938-.61 1.062-1.14 2.75-1.266 3.984-.062.594-.172 1.063-.25 1.063-.375 0-1.734-3.422-2.406-6.016-.719-2.781-.938-5.297-.703-7.766.562-5.812 3.328-12 7.937-17.671.469-.578.907-1.047.969-1.047.078 0 .672.687 1.344 1.515zM12.422 33.141c1.86.172 5.594.984 7.844 1.718 3.312 1.078 6.875 2.938 9.078 4.72l.656.53v1.594c0 2.828.688 6.188 1.875 9.25.344.875.625 1.61.625 1.656 0 .047-.375.063-.844.016-1.734-.14-3.937.469-5.531 1.547-1.61 1.062-2.078 2.172-1.516 3.531.125.313.203.594.172.625-.11.11-1.547-.672-3.078-1.687-1.984-1.328-4.625-3.97-5.969-6-2.39-3.625-4.187-8.36-5.015-13.282-.281-1.609-.531-4.265-.422-4.39.031-.032.281-.032.547 0 .265.047.984.125 1.578.172zm57.297.562c-.172 3.188-1.235 7.969-2.469 11.078-2.484 6.328-6.047 10.438-11.688 13.453-1.453.766-1.546.797-1.437.438.406-1.25.547-2.281.406-2.828-.406-1.485-3.218-2.782-6.047-2.782h-1.28l.437-.984c1.39-3.094 2.203-6.516 2.328-9.766l.078-2.25.797-.624c3.422-2.72 8.484-4.86 13.86-5.844 1.984-.36 4.53-.688 4.905-.61.079.016.125.328.11.72zm-29.406 12.64c1.937.985 3.75 4.063 3.75 6.329 0 1.094-.126 1.281-1.235 1.89-.562.329-1.531 1.079-2.14 1.688-1.11 1.125-1.485 1.797-1.704 3.094-.078.468-.156.593-.422.593-.546 0-1.906-1.53-2.312-2.593-1.469-3.922-.844-7.828 1.656-10.344 1.094-1.078 1.39-1.172 2.407-.656zm-26.126 3.813c2.516 4.11 6.672 7.766 10.985 9.672.484.219 1.187.688 1.562 1.063.86.828 2.282 1.75 3.235 2.109.406.156.765.297.797.313.03.03-.125.265-.344.515-.219.266-.422.563-.453.672-.063.156-.719.219-2.61.25-4.406.094-7.234-.516-10.875-2.313-3.234-1.593-6.156-3.89-8.859-6.953C6.031 53.687 4.187 51.156 4.344 51c.234-.219 3.781-1.234 5.578-1.61 3.656-.75 3.312-.812 4.265.766zm56.047-.734c1.782.375 5.188 1.36 5.422 1.594.219.203-2.906 4.14-4.719 5.968-2.218 2.22-4.656 4.063-7.046 5.297-3.5 1.813-6.563 2.516-10.891 2.485-3.281-.016-4.328-.141-4.625-.547-.266-.36-.203-.438.61-.688 1.046-.328 2.28-1.11 3.187-2.031.687-.688 1.266-1.063 2.594-1.703 4.968-2.36 8.578-5.563 11.25-9.984l.593-.985.875.11c.485.046 1.72.265 2.75.484zM33.672 54.14l.797.343.265 1.282c.36 1.797 1.157 3.328 2.235 4.312.484.438 1.047.844 1.25.89.593.157.406.548-.532 1.094-2.046 1.235-5.562 1-8.312-.515-1.844-1.031-3.594-3.188-3.844-4.766-.093-.5-.031-.625.516-1.172.703-.703 1.875-1.328 3.172-1.687 1.218-.328 3.422-.234 4.453.219zm16.719.203c1 .218 2.265.797 2.812 1.312.375.36.422.485.36 1.157-.235 2.437-2.985 5.359-5.547 5.906-.578.125-.625.093-1.563-.766-1.516-1.39-4.094-2.5-5.297-2.25-.203.047-.547.11-.765.156-.328.078-.391.032-.391-.265 0-1.157 1.484-2.985 3.281-4.032 2.313-1.374 4.61-1.765 7.11-1.218zm-6.563 7.14c1.938.953 4.016 3.375 4.781 5.594.657 1.906.532 4.672-.265 5.453-.313.328-.5.375-1.594.375-2.594 0-4.89-1.187-6.328-3.265-.406-.594-.453-.75-.297-1.094.078-.219.344-.828.563-1.36.812-1.937.859-4.109.093-5.562-.172-.328-.312-.64-.312-.688 0-.062.515-.078 1.14-.046.907.047 1.36.172 2.22.593zm-3.734.875c.39.938.281 2.703-.235 4.141-1.375 3.75-4.64 6.39-7.922 6.406-.937 0-1.312-.312-1.718-1.406-.344-.953-.453-3-.235-4.094.22-1.015.907-2.453 1.547-3.219l.422-.515 1.25.156c2.36.297 4.734-.312 5.875-1.484.281-.297.578-.532.64-.532.079 0 .25.25.376.547z" fill="pink"/></svg>