<svg width="80" height="80" fill="none" xmlns="http://www.w3.org/2000/svg"><path d="M39.656 5.203c-.14.11-.875 1.203-1.64 2.453-7.328 11.86-12.97 22.782-15.11 29.282-1 3.015-1.265 4.374-1.25 6.578.047 8.375 6.125 15.78 14.438 17.578 8.203 1.781 16.672-2.313 20.36-9.875 1.952-3.985 2.343-8.235 1.155-12.469-1.718-6.094-6.484-15.797-13.468-27.422-3.907-6.5-3.953-6.562-4.485-6.125zm3.375 6.516c3.438 5.75 5.828 10.047 8.235 14.844 3.14 6.28 4.922 10.75 5.625 14.125.656 3.187.125 6.734-1.5 10.015-2.125 4.297-5.672 7.375-10.157 8.813-2.109.687-3.5.859-6.062.75-1.703-.063-2.563-.172-3.672-.485-7.469-2.062-12.688-8.797-12.688-16.36 0-1.968.313-3.546 1.22-6.233 2.109-6.22 7.25-16.266 14.062-27.454 1.812-2.968 1.828-3 2.093-2.656.157.188 1.422 2.281 2.844 4.64z" fill="#EDC9BD"/><path d="M14.297 51.594c-1.313 1.531-1.875 3.11-1.766 4.875.36 5.422 8.313 9.906 20.281 11.422 2.72.359 8.75.484 11.641.25 7.64-.61 14.11-2.438 18.36-5.204 1.687-1.093 3.343-2.843 4.015-4.28.547-1.141.594-1.344.578-2.563-.015-1.61-.36-2.61-1.39-3.985-.797-1.062-1.204-1.312-1.563-1.015-.36.297-.281.61.328 1.281 1.906 2.11 1.969 4.875.156 7.172-1.984 2.531-7.015 5.031-12.593 6.281-9.313 2.078-20.328 1.656-28.594-1.094-7.14-2.375-11.016-6.234-9.953-9.906.25-.828.703-1.625 1.562-2.703.375-.453.422-.594.266-.86-.266-.5-.703-.39-1.328.329z" fill="#EDC9BD"/><path d="M8.313 59.563c-.25.25-.235 1.109.046 2.218.922 3.516 4.594 6.938 9.954 9.25 4.125 1.781 9.265 3.063 14.89 3.688 2.875.312 11.438.265 14.297-.078 12.25-1.5 21.281-5.985 23.719-11.766.484-1.156.765-2.953.5-3.266-.5-.609-1.094-.093-1.094.97-.016 2.14-2.203 5.14-5.188 7.124-4.53 3.016-11.062 5.016-19.343 5.922-2.735.297-10.188.25-13.047-.094-9.766-1.14-17.094-3.906-21.094-7.969-1.547-1.562-2.328-3-2.625-4.859-.156-1.047-.25-1.25-.5-1.297-.172-.015-.406.047-.515.157z" fill="#EDC9BD"/><path d="M57.5 42.5C57.5 56.86 44.418 61 40 61c-4.418 0-17.5-4.14-17.5-18.5 0-5.138 3.715-10.76 6-16C32.6 17.097 36.79 8.927 40 7c2.656 1.594 6.453 8.485 10 16 4.5 6.5 6.094 13.64 7.5 19.5z" fill="#EDC9BD"/></svg>