<svg width="36" height="22" fill="none" xmlns="http://www.w3.org/2000/svg"><path d="M18 2.353a11.006 11.006 0 013.132 3.839A10.88 10.88 0 0122.248 11a10.877 10.877 0 01-1.117 4.806 11.004 11.004 0 01-3.132 3.838 11.006 11.006 0 01-3.132-3.839 10.877 10.877 0 01-1.117-4.807 10.877 10.877 0 011.117-4.807A11.004 11.004 0 0118 2.353zm-1.425-.942a12.61 12.61 0 00-3.3 4.31 12.474 12.474 0 00-1.168 5.282 12.475 12.475 0 001.167 5.28 12.61 12.61 0 003.298 4.309A11.225 11.225 0 0111.024 22a11.222 11.222 0 01-5.52-1.508 11.062 11.062 0 01-4.031-4.023A10.904 10.904 0 010 10.997c0-1.92.51-3.806 1.476-5.471a11.062 11.062 0 014.033-4.021A11.223 11.223 0 0111.03 0c1.942-.016 3.854.47 5.547 1.41h-.002zm2.851 19.181a12.608 12.608 0 003.298-4.31 12.473 12.473 0 001.167-5.279 12.476 12.476 0 00-1.168-5.282 12.61 12.61 0 00-3.3-4.31A11.226 11.226 0 0124.97 0c1.942.016 3.845.535 5.521 1.504a11.062 11.062 0 014.033 4.02A10.904 10.904 0 0136 10.998c0 1.92-.507 3.807-1.473 5.472a11.062 11.062 0 01-4.03 4.023A11.222 11.222 0 0124.975 22a11.225 11.225 0 01-5.548-1.408h-.002z" fill="#fff" fill-opacity=".5"/></svg>