<svg width="27" height="27" fill="none" xmlns="http://www.w3.org/2000/svg"><path d="M19.71 8.388l-2.122 10.607c-.16.75-.578.935-1.17.583l-3.234-2.526-1.56 1.59c-.173.184-.318.337-.65.337l.232-3.49 5.993-5.74c.26-.246-.057-.383-.405-.137l-7.409 4.945-3.19-1.058c-.693-.23-.706-.736.145-1.088l12.476-5.094c.577-.23 1.082.136.894 1.07z" fill="url(#a)"/><path d="M26 13.5C26 6.596 20.404 1 13.5 1S1 6.596 1 13.5 6.596 26 13.5 26 26 20.404 26 13.5z" stroke="url(#b)" stroke-width="2"/><defs><linearGradient id="a" x1="11.529" y1="5.079" x2="19.907" y2="24.535" gradientUnits="userSpaceOnUse"><stop stop-color="#fff"/><stop offset="1" stop-color="#fff"/></linearGradient><linearGradient id="b" x1="7.201" y1="2.036" x2="18.875" y2="25.385" gradientUnits="userSpaceOnUse"><stop stop-color="#fff"/><stop offset="1" stop-color="#fff"/></linearGradient></defs></svg>