<svg width="23" height="23" fill="none" xmlns="http://www.w3.org/2000/svg"><path d="M7.461 21.007c-.133.136-.268.281-.385.407l-.147.158c-.157.166-.27.276-.365.352l-.004.003a.894.894 0 01-.004-.068v-.029l.005-2.318.002-1.002h-.871c-2.394-.678-3.54-2.16-4.12-3.829-.615-1.768-.591-3.74-.558-5.25.065-2.886.654-4.958 2.084-6.325 1.324-1.142 3.438-1.698 5.378-1.94a22.205 22.205 0 013.159-.16l.192.006.047.002h.011l.026.002h.027c5.213.022 7.408 1.626 7.81 1.977l.011.009.011.01c1.586 1.307 2.74 4.49 2.003 10.171h0c-.321 2.502-1.447 3.783-2.514 4.493-.898.597-1.74.804-2.328.949a7.06 7.06 0 00-.411.108m-9.06 2.274h.001l.714.7-.716-.7h.001zm0 0c.399-.408.955-1.015 1.388-1.489l.33-.361.488.039c3.746.298 6.604-.389 6.853-.463m0 0a.03.03 0 00-.004.001l.295.956-.29-.957h-.001zm-9.922 3.364a.032.032 0 01.003.007l-.003-.007z" stroke="#fff" stroke-width="2"/><path d="M14.48 9.26c.02.386-.591.413-.61.027-.052-.988-.54-1.469-1.544-1.523-.408-.022-.37-.602.033-.579 1.321.067 2.056.786 2.122 2.075z" fill="#fff"/><path d="M15.442 9.768c.047-1.905-1.208-3.396-3.59-3.562-.403-.027-.36-.607.042-.58 2.748.189 4.211 1.981 4.16 4.155-.006.386-.621.368-.612-.013z" fill="#fff"/><path d="M17.669 10.37c.005.386-.611.39-.611.004-.029-3.66-2.6-5.655-5.722-5.677-.403-.005-.403-.58 0-.58 3.49.023 6.3 2.309 6.333 6.252zm-.536 4.406v.009c-.511.853-1.468 1.796-2.453 1.495l-.01-.013c-1-.265-3.353-1.415-4.84-2.538a12.08 12.08 0 01-2.01-1.904c-.487-.58-.98-1.267-1.458-2.093C5.353 8.002 5.13 7.23 5.13 7.23c-.317-.935.673-1.842 1.578-2.327h.01c.435-.216.852-.144 1.131.175 0 0 .588.665.839.993.237.305.554.795.72 1.069.289.49.109.988-.176 1.195l-.568.43c-.289.22-.251.63-.251.63s.843 3.023 3.993 3.786c0 0 .431.036.663-.238l.455-.539c.218-.27.744-.44 1.26-.166.696.373 1.582.952 2.17 1.478.33.256.407.647.18 1.06z" fill="#fff"/></svg>