<svg width="60" height="19" fill="none" xmlns="http://www.w3.org/2000/svg"><path d="M24.602.365l-4.019 18.513h4.872L29.353.365h-4.75zm-7.064 0L12.545 12.91l-2.07-10.718C10.23.974 9.255.365 8.281.365H.122L0 .853c1.705.365 3.532.974 4.75 1.583.73.365.853.73 1.096 1.583l3.776 14.738h5.115L22.532.243h-4.994v.121zm37.879 0h-4.141c-.975 0-1.706.487-2.07 1.34l-7.187 17.173h4.994l.974-2.801h6.09l.609 2.801h4.385L55.416.365zM49.57 12.301l2.557-6.942L53.59 12.3h-4.02zM35.686 5.48c0-.608.61-1.339 2.07-1.583.732-.121 2.559-.121 4.75.853L43.36.853C42.263.487 40.68 0 38.853 0c-4.75 0-8.039 2.558-8.039 6.09 0 2.68 2.436 4.14 4.142 4.993 1.826.853 2.435 1.462 2.435 2.315 0 1.217-1.461 1.826-2.923 1.826-2.436 0-3.775-.609-4.872-1.218l-.852 4.02c1.096.487 3.167.974 5.359.974 4.994 0 8.282-2.436 8.282-6.333 0-4.628-6.82-4.994-6.699-7.186z" fill="#fff" fill-opacity=".5"/></svg>