<svg width="23" height="23" fill="none" xmlns="http://www.w3.org/2000/svg"><path fill-rule="evenodd" clip-rule="evenodd" d="M19.649 3.342A11.405 11.405 0 0011.548 0C5.236 0 .098 5.112.096 11.396c0 2.01.526 3.97 1.529 5.698L0 23l6.07-1.585a11.486 11.486 0 005.473 1.387h.005c6.312 0 11.45-5.113 11.452-11.397a11.301 11.301 0 00-3.351-8.063zm-8.101 17.536h-.004a9.54 9.54 0 01-4.844-1.32l-.348-.206-3.602.94.961-3.495-.226-.359a9.417 9.417 0 01-1.455-5.041c.002-5.223 4.272-9.472 9.522-9.472 2.542 0 4.932.987 6.73 2.778a9.393 9.393 0 012.784 6.702c-.002 5.223-4.272 9.473-9.518 9.473z" fill="#fff"/><path fill-rule="evenodd" clip-rule="evenodd" d="M16.769 13.783c-.286-.143-1.693-.832-1.955-.927-.262-.095-.453-.142-.644.143-.19.285-.74.926-.906 1.117-.167.19-.334.213-.62.07-.286-.142-1.208-.443-2.301-1.413-.85-.755-1.425-1.687-1.592-1.973-.167-.285-.018-.439.126-.58.128-.128.286-.333.429-.5.143-.166.19-.285.286-.475.095-.19.048-.356-.024-.499-.071-.142-.644-1.544-.882-2.114-.232-.555-.468-.48-.644-.489-.167-.008-.358-.01-.548-.01-.191 0-.501.071-.763.356-.263.286-1.002.975-1.002 2.376 0 1.402 1.025 2.756 1.168 2.946.143.19 2.018 3.066 4.889 4.3.682.293 1.215.469 1.63.6.686.217 1.31.186 1.803.113.55-.082 1.693-.69 1.932-1.354.238-.666.238-1.236.166-1.354-.071-.12-.262-.19-.548-.333z" fill="#fff"/></svg>