<svg width="375" height="440" viewBox="0 0 375 440" fill="none" xmlns="http://www.w3.org/2000/svg">
<rect width="375" height="440" fill="url(#paint0_radial_333_3)"/>
<path d="M48.5 192.25V192.1L111.95 113.35H112.1V175.75H123.95V192.25H112.1V214H90.2V192.25H48.5ZM91.25 161.2L79.7 176.65L77.6 175.75H90.2V160.15L91.25 161.2ZM177.01 214.15C171.31 214.15 165.91 213.15 160.81 211.15C155.81 209.15 151.36 206.1 147.46 202C143.66 197.8 140.66 192.55 138.46 186.25C136.26 179.85 135.16 172.35 135.16 163.75C135.16 154.15 136.21 146.15 138.31 139.75C140.41 133.25 143.31 128.05 147.01 124.15C150.81 120.25 155.26 117.5 160.36 115.9C165.46 114.2 171.01 113.35 177.01 113.35C182.71 113.35 188.06 114.35 193.06 116.35C198.16 118.35 202.61 121.45 206.41 125.65C210.31 129.75 213.36 135 215.56 141.4C217.76 147.7 218.86 155.15 218.86 163.75C218.86 172.65 217.76 180.3 215.56 186.7C213.36 193.1 210.31 198.35 206.41 202.45C202.51 206.45 198.06 209.4 193.06 211.3C188.06 213.2 182.71 214.15 177.01 214.15ZM176.86 193.3C181.86 193.3 185.76 192 188.56 189.4C191.36 186.7 193.31 183.05 194.41 178.45C195.61 173.85 196.21 168.75 196.21 163.15C196.21 157.65 195.61 152.75 194.41 148.45C193.31 144.15 191.36 140.75 188.56 138.25C185.76 135.65 181.86 134.35 176.86 134.35C171.96 134.35 168.11 135.65 165.31 138.25C162.51 140.85 160.56 144.35 159.46 148.75C158.36 153.15 157.81 158.1 157.81 163.6C157.81 169.1 158.36 174.1 159.46 178.6C160.56 183.1 162.51 186.7 165.31 189.4C168.11 192 171.96 193.3 176.86 193.3ZM225.6 192.25V192.1L289.05 113.35H289.2V175.75H301.05V192.25H289.2V214H267.3V192.25H225.6ZM268.35 161.2L256.8 176.65L254.7 175.75H267.3V160.15L268.35 161.2Z" fill="#EDC9BD"/>
<path d="M60.5 186.25V186.1L123.95 107.35H124.1V169.75H135.95V186.25H124.1V208H102.2V186.25H60.5ZM103.25 155.2L91.7 170.65L89.6 169.75H102.2V154.15L103.25 155.2ZM189.01 208.15C183.31 208.15 177.91 207.15 172.81 205.15C167.81 203.15 163.36 200.1 159.46 196C155.66 191.8 152.66 186.55 150.46 180.25C148.26 173.85 147.16 166.35 147.16 157.75C147.16 148.15 148.21 140.15 150.31 133.75C152.41 127.25 155.31 122.05 159.01 118.15C162.81 114.25 167.26 111.5 172.36 109.9C177.46 108.2 183.01 107.35 189.01 107.35C194.71 107.35 200.06 108.35 205.06 110.35C210.16 112.35 214.61 115.45 218.41 119.65C222.31 123.75 225.36 129 227.56 135.4C229.76 141.7 230.86 149.15 230.86 157.75C230.86 166.65 229.76 174.3 227.56 180.7C225.36 187.1 222.31 192.35 218.41 196.45C214.51 200.45 210.06 203.4 205.06 205.3C200.06 207.2 194.71 208.15 189.01 208.15ZM188.86 187.3C193.86 187.3 197.76 186 200.56 183.4C203.36 180.7 205.31 177.05 206.41 172.45C207.61 167.85 208.21 162.75 208.21 157.15C208.21 151.65 207.61 146.75 206.41 142.45C205.31 138.15 203.36 134.75 200.56 132.25C197.76 129.65 193.86 128.35 188.86 128.35C183.96 128.35 180.11 129.65 177.31 132.25C174.51 134.85 172.56 138.35 171.46 142.75C170.36 147.15 169.81 152.1 169.81 157.6C169.81 163.1 170.36 168.1 171.46 172.6C172.56 177.1 174.51 180.7 177.31 183.4C180.11 186 183.96 187.3 188.86 187.3ZM237.6 186.25V186.1L301.05 107.35H301.2V169.75H313.05V186.25H301.2V208H279.3V186.25H237.6ZM280.35 155.2L268.8 170.65L266.7 169.75H279.3V154.15L280.35 155.2Z" fill="#343434" fill-opacity="0.6"/>
<defs>
<radialGradient id="paint0_radial_333_3" cx="0" cy="0" r="1" gradientUnits="userSpaceOnUse" gradientTransform="translate(187.5 164.411) rotate(89.9998) scale(275.589 252.264)">
<stop stop-color="#EDC9BD" stop-opacity="0.41"/>
<stop offset="1" stop-color="#EDC9BD"/>
</radialGradient>
</defs>
</svg>
