<svg width="375" height="440" fill="none" xmlns="http://www.w3.org/2000/svg"><path fill="url(#a)" d="M0 0h375v440H0z"/><path d="M48.5 192.25v-.15l63.45-78.75h.15v62.4h11.85v16.5H112.1V214H90.2v-21.75H48.5zm42.75-31.05L79.7 176.65l-2.1-.9h12.6v-15.6l1.05 1.05zm85.76 52.95c-5.7 0-11.1-1-16.2-3-5-2-9.45-5.05-13.35-9.15-3.8-4.2-6.8-9.45-9-15.75-2.2-6.4-3.3-13.9-3.3-22.5 0-9.6 1.05-17.6 3.15-24 2.1-6.5 5-11.7 8.7-15.6 3.8-3.9 8.25-6.65 13.35-8.25 5.1-1.7 10.65-2.55 16.65-2.55 5.7 0 11.05 1 16.05 3 5.1 2 9.55 5.1 13.35 9.3 3.9 4.1 6.95 9.35 9.15 15.75 2.2 6.3 3.3 13.75 3.3 22.35 0 8.9-1.1 16.55-3.3 22.95-2.2 6.4-5.25 11.65-9.15 15.75-3.9 4-8.35 6.95-13.35 8.85-5 1.9-10.35 2.85-16.05 2.85zm-.15-20.85c5 0 8.9-1.3 11.7-3.9 2.8-2.7 4.75-6.35 5.85-10.95 1.2-4.6 1.8-9.7 1.8-15.3 0-5.5-.6-10.4-1.8-14.7-1.1-4.3-3.05-7.7-5.85-10.2-2.8-2.6-6.7-3.9-11.7-3.9-4.9 0-8.75 1.3-11.55 3.9-2.8 2.6-4.75 6.1-5.85 10.5-1.1 4.4-1.65 9.35-1.65 14.85s.55 10.5 1.65 15c1.1 4.5 3.05 8.1 5.85 10.8 2.8 2.6 6.65 3.9 11.55 3.9zm48.74-1.05v-.15l63.45-78.75h.15v62.4h11.85v16.5H289.2V214h-21.9v-21.75h-41.7zm42.75-31.05-11.55 15.45-2.1-.9h12.6v-15.6l1.05 1.05z" fill="pink"/><path d="M60.5 186.25v-.15l63.45-78.75h.15v62.4h11.85v16.5H124.1V208h-21.9v-21.75H60.5zm42.75-31.05L91.7 170.65l-2.1-.9h12.6v-15.6l1.05 1.05zm85.76 52.95c-5.7 0-11.1-1-16.2-3-5-2-9.45-5.05-13.35-9.15-3.8-4.2-6.8-9.45-9-15.75-2.2-6.4-3.3-13.9-3.3-22.5 0-9.6 1.05-17.6 3.15-24 2.1-6.5 5-11.7 8.7-15.6 3.8-3.9 8.25-6.65 13.35-8.25 5.1-1.7 10.65-2.55 16.65-2.55 5.7 0 11.05 1 16.05 3 5.1 2 9.55 5.1 13.35 9.3 3.9 4.1 6.95 9.35 9.15 15.75 2.2 6.3 3.3 13.75 3.3 22.35 0 8.9-1.1 16.55-3.3 22.95-2.2 6.4-5.25 11.65-9.15 15.75-3.9 4-8.35 6.95-13.35 8.85-5 1.9-10.35 2.85-16.05 2.85zm-.15-20.85c5 0 8.9-1.3 11.7-3.9 2.8-2.7 4.75-6.35 5.85-10.95 1.2-4.6 1.8-9.7 1.8-15.3 0-5.5-.6-10.4-1.8-14.7-1.1-4.3-3.05-7.7-5.85-10.2-2.8-2.6-6.7-3.9-11.7-3.9-4.9 0-8.75 1.3-11.55 3.9-2.8 2.6-4.75 6.1-5.85 10.5-1.1 4.4-1.65 9.35-1.65 14.85s.55 10.5 1.65 15c1.1 4.5 3.05 8.1 5.85 10.8 2.8 2.6 6.65 3.9 11.55 3.9zm48.74-1.05v-.15l63.45-78.75h.15v62.4h11.85v16.5H301.2V208h-21.9v-21.75h-41.7zm42.75-31.05-11.55 15.45-2.1-.9h12.6v-15.6l1.05 1.05z" fill="#343434" fill-opacity=".6"/><defs><radialGradient id="a" cx="0" cy="0" r="1" gradientUnits="userSpaceOnUse" gradientTransform="matrix(.00096 275.589 -252.264 .00088 187.5 164.411)"><stop stop-color="pink" stop-opacity=".41"/><stop offset="1" stop-color="pink"/></radialGradient></defs></svg>