<svg width="1920" height="949" viewBox="0 0 1920 949" fill="none" xmlns="http://www.w3.org/2000/svg">
<rect width="1920" height="949" fill="url(#paint0_radial_331_2)"/>
<path d="M601 431V430.6L770.2 220.6H770.6V387H802.2V431H770.6V489H712.2V431H601ZM715 348.2L684.2 389.4L678.6 387H712.2V345.4L715 348.2ZM943.694 489.4C928.494 489.4 914.094 486.733 900.494 481.4C887.16 476.067 875.294 467.933 864.894 457C854.76 445.8 846.76 431.8 840.894 415C835.027 397.933 832.094 377.933 832.094 355C832.094 329.4 834.894 308.067 840.494 291C846.094 273.667 853.827 259.8 863.694 249.4C873.827 239 885.694 231.667 899.294 227.4C912.894 222.867 927.694 220.6 943.694 220.6C958.894 220.6 973.16 223.267 986.494 228.6C1000.09 233.933 1011.96 242.2 1022.09 253.4C1032.49 264.333 1040.63 278.333 1046.49 295.4C1052.36 312.2 1055.29 332.067 1055.29 355C1055.29 378.733 1052.36 399.133 1046.49 416.2C1040.63 433.267 1032.49 447.267 1022.09 458.2C1011.69 468.867 999.827 476.733 986.494 481.8C973.16 486.867 958.894 489.4 943.694 489.4ZM943.294 433.8C956.627 433.8 967.027 430.333 974.494 423.4C981.96 416.2 987.16 406.467 990.094 394.2C993.294 381.933 994.894 368.333 994.894 353.4C994.894 338.733 993.294 325.667 990.094 314.2C987.16 302.733 981.96 293.667 974.494 287C967.027 280.067 956.627 276.6 943.294 276.6C930.227 276.6 919.96 280.067 912.494 287C905.027 293.933 899.827 303.267 896.894 315C893.96 326.733 892.494 339.933 892.494 354.6C892.494 369.267 893.96 382.6 896.894 394.6C899.827 406.6 905.027 416.2 912.494 423.4C919.96 430.333 930.227 433.8 943.294 433.8ZM1073.27 431V430.6L1242.47 220.6H1242.87V387H1274.47V431H1242.87V489H1184.47V431H1073.27ZM1187.27 348.2L1156.47 389.4L1150.87 387H1184.47V345.4L1187.27 348.2Z" fill="#FFC0CB"/>
<path d="M633 414V413.6L802.2 203.6H802.6V370H834.2V414H802.6V472H744.2V414H633ZM747 331.2L716.2 372.4L710.6 370H744.2V328.4L747 331.2ZM975.694 472.4C960.494 472.4 946.094 469.733 932.494 464.4C919.16 459.067 907.294 450.933 896.894 440C886.76 428.8 878.76 414.8 872.894 398C867.027 380.933 864.094 360.933 864.094 338C864.094 312.4 866.894 291.067 872.494 274C878.094 256.667 885.827 242.8 895.694 232.4C905.827 222 917.694 214.667 931.294 210.4C944.894 205.867 959.694 203.6 975.694 203.6C990.894 203.6 1005.16 206.267 1018.49 211.6C1032.09 216.933 1043.96 225.2 1054.09 236.4C1064.49 247.333 1072.63 261.333 1078.49 278.4C1084.36 295.2 1087.29 315.067 1087.29 338C1087.29 361.733 1084.36 382.133 1078.49 399.2C1072.63 416.267 1064.49 430.267 1054.09 441.2C1043.69 451.867 1031.83 459.733 1018.49 464.8C1005.16 469.867 990.894 472.4 975.694 472.4ZM975.294 416.8C988.627 416.8 999.027 413.333 1006.49 406.4C1013.96 399.2 1019.16 389.467 1022.09 377.2C1025.29 364.933 1026.89 351.333 1026.89 336.4C1026.89 321.733 1025.29 308.667 1022.09 297.2C1019.16 285.733 1013.96 276.667 1006.49 270C999.027 263.067 988.627 259.6 975.294 259.6C962.227 259.6 951.96 263.067 944.494 270C937.027 276.933 931.827 286.267 928.894 298C925.96 309.733 924.494 322.933 924.494 337.6C924.494 352.267 925.96 365.6 928.894 377.6C931.827 389.6 937.027 399.2 944.494 406.4C951.96 413.333 962.227 416.8 975.294 416.8ZM1105.27 414V413.6L1274.47 203.6H1274.87V370H1306.47V414H1274.87V472H1216.47V414H1105.27ZM1219.27 331.2L1188.47 372.4L1182.87 370H1216.47V328.4L1219.27 331.2Z" fill="#343434" fill-opacity="0.6"/>
<defs>
<radialGradient id="paint0_radial_331_2" cx="0" cy="0" r="1" gradientUnits="userSpaceOnUse" gradientTransform="translate(960 354.605) rotate(89.9995) scale(594.395 1291.59)">
<stop stop-color="#FFC0CB" stop-opacity="0.41"/>
<stop offset="1" stop-color="#FFC0CB"/>
</radialGradient>
</defs>
</svg>
