<svg width="25" height="22" viewBox="0 0 25 22" fill="none" xmlns="http://www.w3.org/2000/svg">
<path fill-rule="evenodd" clip-rule="evenodd" d="M24.3158 19.3167C24.3158 20.7989 23.1328 22 21.6728 22H2.64302C1.18302 22 0 20.7989 0 19.3167V3.75342C0 2.56793 0.94673 1.60677 2.11442 1.60677H12.7769L17.0581 0.0321944C17.3292 -0.0681618 17.6295 0.0740543 17.7283 0.34829L18.1792 1.60677H20.087C21.2546 1.60677 22.2014 2.56793 22.2014 3.75342V4.82675C23.3691 4.82675 24.3158 5.78792 24.3158 6.97341V19.3167ZM2.11442 2.68009C1.53084 2.68009 1.05721 3.16095 1.05721 3.75342C1.05721 4.3459 1.53084 4.82675 2.11442 4.82675H3.93546H4.03536C4.04224 4.82407 4.04646 4.81816 4.05334 4.81548L9.85847 2.68009H2.11442ZM17.4852 2.77723L16.9238 1.20803H16.9233L15.8391 1.60677H15.8407L12.926 2.68009H12.9207L7.08541 4.82675H18.2189L17.4852 2.77723ZM21.1442 3.75342C21.1442 3.16095 20.6705 2.68009 20.087 2.68009H18.563L19.3316 4.82675H21.1442V3.75342ZM22.2014 5.90008H2.11442C1.72748 5.90008 1.36908 5.78684 1.05721 5.60223V19.3167C1.05721 20.2059 1.76765 20.9267 2.64302 20.9267H21.6728C22.5487 20.9267 23.2586 20.2059 23.2586 19.3167V15.56H21.1442C19.9765 15.56 19.0297 14.5989 19.0297 13.4134C19.0297 12.2279 19.9765 11.2667 21.1442 11.2667H23.2586V6.97341C23.2586 6.38093 22.785 5.90008 22.2014 5.90008ZM23.2586 14.4867V12.34H21.1442C20.5606 12.34 20.087 12.8209 20.087 13.4134C20.087 14.0059 20.5606 14.4867 21.1442 14.4867H23.2586ZM21.1442 12.8767H22.2014V13.95H21.1442V12.8767Z" fill="white" fill-opacity="0.5"/>
</svg>
