<svg width="80" height="80" viewBox="0 0 80 80" fill="none" xmlns="http://www.w3.org/2000/svg">
<path d="M38.7344 20.4375C36.5156 23.0156 34.6406 25.8281 33.1406 28.8125L32.3281 30.4375L31.9062 30.1562C29.8125 28.75 26.0469 26.8125 24.7812 26.4688C24.25 26.3281 24.0156 26.3281 23.8906 26.4531C23.625 26.7188 22.4219 30.4531 22.0312 32.2031C21.8437 33.0625 21.6719 33.8438 21.6406 33.9531C21.5937 34.0781 21.125 33.9844 20.125 33.6562C18.25 33.0625 15.8281 32.5156 13.6719 32.2188C11.75 31.9531 9.67187 31.8594 9.39062 32.0312C8.96875 32.2969 9.34375 36.4219 10.0937 39.7812C10.5781 41.9062 11.4687 44.6875 12.2344 46.4219C12.5469 47.1094 12.7656 47.6875 12.7344 47.7188C12.7031 47.75 11.8906 47.9062 10.9062 48.0781C8.85937 48.4219 6.26562 49.125 4.37499 49.8281C2.68749 50.4531 2.67187 50.5781 3.8125 52.3125C7.65625 58.125 13.3125 62.75 18.8594 64.6094C21.4219 65.4531 23.0781 65.7344 26.3437 65.8281L29.3281 65.9219L29.0937 66.6406C28.7656 67.6875 28.7812 70.25 29.125 71.4219C29.7344 73.5 30.4844 74.0938 32.3437 73.9531C34.5156 73.8125 37.0312 72.5156 38.5625 70.7656L39.3281 69.9062L39.9219 70.7188C41.3437 72.6562 44.1094 74 46.6406 74C49.3125 74 50.0937 73.0156 50.0625 69.7031C50.0469 68.2969 49.9844 67.7812 49.6562 66.8438L49.2656 65.7031L50.0625 65.8125C51.6562 66.0312 55.625 65.9062 57.5 65.5781C64.6719 64.3281 71.375 59.5781 76.2031 52.3438C77.3281 50.6562 77.2969 50.4688 75.7969 49.8906C73.9531 49.1875 71.0156 48.3906 69.0937 48.0781C68.125 47.9219 67.2969 47.7656 67.2656 47.7344C67.2344 47.6875 67.4531 47.1094 67.7656 46.4219C68.5312 44.6875 69.4219 41.9062 69.9062 39.7812C70.6562 36.4219 71.0312 32.2969 70.6094 32.0312C70.3281 31.8594 68.25 31.9531 66.3281 32.2188C64.1719 32.5156 61.75 33.0625 59.875 33.6562C58.875 33.9844 58.4062 34.0781 58.3594 33.9531C58.3281 33.8438 58.125 32.9688 57.8906 31.9844C57.4687 30.2031 56.8125 28.0312 56.3437 26.9219C56.0469 26.2344 55.8281 26.2031 54.6562 26.6719C53.375 27.1719 50.2656 28.7656 49.0937 29.5156C48.5156 29.8906 47.9687 30.2344 47.8594 30.2969C47.7187 30.3906 47.3906 29.875 46.7969 28.6719C46.3125 27.7188 45.5312 26.3125 45.0781 25.5781C43.4062 22.875 40.5156 19.3125 39.9844 19.3125C39.8281 19.3125 39.2812 19.7969 38.7344 20.4375ZM41.3437 22.2344C44.9062 26.7188 47.5781 32.1562 48.5156 36.8125C49.2812 40.5938 48.9687 45.0938 47.6719 48.9688C47.2812 50.1406 46.0469 53.1562 45.9062 53.2969C45.875 53.3281 45.6719 53.3906 45.4219 53.4531L45 53.5625V52.4688C45 49.3906 42.5312 45.75 39.9687 45.0781C39.3437 44.9062 39.1875 44.9219 38.5469 45.2344C37.7187 45.6406 36.3281 47.0781 35.7187 48.1719C35.1094 49.2344 34.5781 50.9219 34.4531 52.1562C34.3906 52.75 34.2812 53.2188 34.2031 53.2188C33.8281 53.2188 32.4687 49.7969 31.7969 47.2031C31.0781 44.4219 30.8594 41.9062 31.0937 39.4375C31.6562 33.625 34.4219 27.4375 39.0312 21.7656C39.5 21.1875 39.9375 20.7188 40 20.7188C40.0781 20.7188 40.6719 21.4062 41.3437 22.2344ZM12.4219 33.1406C14.2812 33.3125 18.0156 34.125 20.2656 34.8594C23.5781 35.9375 27.1406 37.7969 29.3437 39.5781L30 40.1094V41.7031C30 44.5312 30.6875 47.8906 31.875 50.9531C32.2187 51.8281 32.5 52.5625 32.5 52.6094C32.5 52.6562 32.125 52.6719 31.6562 52.625C29.9219 52.4844 27.7187 53.0938 26.125 54.1719C24.5156 55.2344 24.0469 56.3438 24.6094 57.7031C24.7344 58.0156 24.8125 58.2969 24.7812 58.3281C24.6719 58.4375 23.2344 57.6562 21.7031 56.6406C19.7187 55.3125 17.0781 52.6719 15.7344 50.6406C13.3437 47.0156 11.5469 42.2812 10.7187 37.3594C10.4375 35.75 10.1875 33.0938 10.2969 32.9688C10.3281 32.9375 10.5781 32.9375 10.8437 32.9688C11.1094 33.0156 11.8281 33.0938 12.4219 33.1406ZM69.7187 33.7031C69.5469 36.8906 68.4844 41.6719 67.25 44.7812C64.7656 51.1094 61.2031 55.2188 55.5625 58.2344C54.1094 59 54.0156 59.0312 54.125 58.6719C54.5312 57.4219 54.6719 56.3906 54.5312 55.8438C54.125 54.3594 51.3125 53.0625 48.4844 53.0625H47.2031L47.6406 52.0781C49.0312 48.9844 49.8437 45.5625 49.9687 42.3125L50.0469 40.0625L50.8437 39.4375C54.2656 36.7188 59.3281 34.5781 64.7031 33.5938C66.6875 33.2344 69.2344 32.9062 69.6094 32.9844C69.6875 33 69.7344 33.3125 69.7187 33.7031ZM40.3125 46.3438C42.25 47.3281 44.0625 50.4062 44.0625 52.6719C44.0625 53.7656 43.9375 53.9531 42.8281 54.5625C42.2656 54.8906 41.2969 55.6406 40.6875 56.25C39.5781 57.375 39.2031 58.0469 38.9844 59.3438C38.9062 59.8125 38.8281 59.9375 38.5625 59.9375C38.0156 59.9375 36.6562 58.4062 36.25 57.3438C34.7812 53.4219 35.4062 49.5156 37.9062 47C39 45.9219 39.2969 45.8281 40.3125 46.3438ZM14.1875 50.1562C16.7031 54.2656 20.8594 57.9219 25.1719 59.8281C25.6562 60.0469 26.3594 60.5156 26.7344 60.8906C27.5937 61.7188 29.0156 62.6406 29.9687 63C30.375 63.1562 30.7344 63.2969 30.7656 63.3125C30.7969 63.3438 30.6406 63.5781 30.4219 63.8281C30.2031 64.0938 30 64.3906 29.9687 64.5C29.9062 64.6562 29.25 64.7188 27.3594 64.75C22.9531 64.8438 20.125 64.2344 16.4844 62.4375C13.25 60.8438 10.3281 58.5469 7.625 55.4844C6.03125 53.6875 4.18749 51.1562 4.34374 51C4.57812 50.7812 8.125 49.7656 9.92187 49.3906C13.5781 48.6406 13.2344 48.5781 14.1875 50.1562ZM70.2344 49.4219C72.0156 49.7969 75.4219 50.7812 75.6562 51.0156C75.875 51.2188 72.75 55.1562 70.9375 56.9844C68.7187 59.2031 66.2812 61.0469 63.8906 62.2812C60.3906 64.0938 57.3281 64.7969 53 64.7656C49.7187 64.75 48.6719 64.625 48.375 64.2188C48.1094 63.8594 48.1719 63.7812 48.9844 63.5312C50.0312 63.2031 51.2656 62.4219 52.1719 61.5C52.8594 60.8125 53.4375 60.4375 54.7656 59.7969C59.7344 57.4375 63.3437 54.2344 66.0156 49.8125L66.6094 48.8281L67.4844 48.9375C67.9687 48.9844 69.2031 49.2031 70.2344 49.4219ZM33.6719 54.1406L34.4687 54.4844L34.7344 55.7656C35.0937 57.5625 35.8906 59.0938 36.9687 60.0781C37.4531 60.5156 38.0156 60.9219 38.2187 60.9688C38.8125 61.125 38.625 61.5156 37.6875 62.0625C35.6406 63.2969 32.125 63.0625 29.375 61.5469C27.5312 60.5156 25.7812 58.3594 25.5312 56.7812C25.4375 56.2812 25.5 56.1562 26.0469 55.6094C26.75 54.9062 27.9219 54.2812 29.2187 53.9219C30.4375 53.5938 32.6406 53.6875 33.6719 54.1406ZM50.3906 54.3438C51.3906 54.5625 52.6562 55.1406 53.2031 55.6562C53.5781 56.0156 53.625 56.1406 53.5625 56.8125C53.3281 59.25 50.5781 62.1719 48.0156 62.7188C47.4375 62.8438 47.3906 62.8125 46.4531 61.9531C44.9375 60.5625 42.3594 59.4531 41.1562 59.7031C40.9531 59.75 40.6094 59.8125 40.3906 59.8594C40.0625 59.9375 40 59.8906 40 59.5938C40 58.4375 41.4844 56.6094 43.2812 55.5625C45.5937 54.1875 47.8906 53.7969 50.3906 54.3438ZM43.8281 61.4844C45.7656 62.4375 47.8437 64.8594 48.6094 67.0781C49.2656 68.9844 49.1406 71.75 48.3437 72.5312C48.0312 72.8594 47.8437 72.9062 46.75 72.9062C44.1562 72.9062 41.8594 71.7188 40.4219 69.6406C40.0156 69.0469 39.9687 68.8906 40.125 68.5469C40.2031 68.3281 40.4687 67.7188 40.6875 67.1875C41.5 65.25 41.5469 63.0781 40.7812 61.625C40.6094 61.2969 40.4687 60.9844 40.4687 60.9375C40.4687 60.875 40.9844 60.8594 41.6094 60.8906C42.5156 60.9375 42.9687 61.0625 43.8281 61.4844ZM40.0937 62.3594C40.4844 63.2969 40.375 65.0625 39.8594 66.5C38.4844 70.25 35.2187 72.8906 31.9375 72.9062C31 72.9062 30.625 72.5938 30.2187 71.5C29.875 70.5469 29.7656 68.5 29.9844 67.4062C30.2031 66.3906 30.8906 64.9531 31.5312 64.1875L31.9531 63.6719L33.2031 63.8281C35.5625 64.125 37.9375 63.5156 39.0781 62.3438C39.3594 62.0469 39.6562 61.8125 39.7187 61.8125C39.7969 61.8125 39.9687 62.0625 40.0937 62.3594Z" fill="#FFC0CB"/>
</svg>
