<svg width="80" height="80" viewBox="0 0 80 80" fill="none" xmlns="http://www.w3.org/2000/svg">
<path d="M39.6563 5.2031C39.5157 5.31247 38.7813 6.40622 38.0157 7.65622C30.6875 19.5156 25.0469 30.4375 22.9063 36.9375C21.9063 39.9531 21.6407 41.3125 21.6563 43.5156C21.7032 51.8906 27.7813 59.2968 36.0938 61.0937C44.2969 62.875 52.7657 58.7812 56.4532 51.2187C58.4063 47.2343 58.7969 42.9843 57.6094 38.75C55.8907 32.6562 51.125 22.9531 44.1407 11.3281C40.2344 4.8281 40.1875 4.7656 39.6563 5.2031ZM43.0313 11.7187C46.4688 17.4687 48.8594 21.7656 51.2657 26.5625C54.4063 32.8437 56.1875 37.3125 56.8907 40.6875C57.5469 43.875 57.0157 47.4218 55.3907 50.7031C53.2657 55 49.7188 58.0781 45.2344 59.5156C43.125 60.2031 41.7344 60.375 39.1719 60.2656C37.4688 60.2031 36.6094 60.0937 35.5 59.7812C28.0313 57.7187 22.8125 50.9843 22.8125 43.4218C22.8125 41.4531 23.125 39.875 24.0313 37.1875C26.1407 30.9687 31.2813 20.9218 38.0938 9.73435C39.9063 6.7656 39.9219 6.73435 40.1875 7.0781C40.3438 7.2656 41.6094 9.35935 43.0313 11.7187Z" fill="#EDC9BD"/>
<path d="M14.2969 51.5937C12.9844 53.125 12.4219 54.7031 12.5313 56.4687C12.8906 61.8906 20.8438 66.375 32.8125 67.8906C35.5313 68.25 41.5625 68.375 44.4531 68.1406C52.0938 67.5312 58.5625 65.7031 62.8125 62.9375C64.5 61.8437 66.1563 60.0937 66.8281 58.6562C67.375 57.5156 67.4219 57.3125 67.4063 56.0937C67.3906 54.4844 67.0469 53.4844 66.0156 52.1094C65.2188 51.0469 64.8125 50.7969 64.4531 51.0937C64.0938 51.3906 64.1719 51.7031 64.7813 52.375C66.6875 54.4844 66.75 57.25 64.9375 59.5469C62.9531 62.0781 57.9219 64.5781 52.3438 65.8281C43.0313 67.9062 32.0156 67.4844 23.75 64.7344C16.6094 62.3594 12.7344 58.5 13.7969 54.8281C14.0469 54 14.5 53.2031 15.3594 52.125C15.7344 51.6719 15.7813 51.5312 15.625 51.2656C15.3594 50.7656 14.9219 50.875 14.2969 51.5937Z" fill="#EDC9BD"/>
<path d="M8.31252 59.5625C8.06252 59.8125 8.07814 60.6718 8.35939 61.7812C9.28127 65.2968 12.9531 68.7187 18.3125 71.0312C22.4375 72.8125 27.5781 74.0937 33.2031 74.7187C36.0781 75.0312 44.6406 74.9843 47.5 74.6406C59.75 73.1406 68.7813 68.6562 71.2188 62.875C71.7032 61.7187 71.9844 59.9218 71.7188 59.6093C71.2188 59 70.625 59.5156 70.625 60.5781C70.6094 62.7187 68.4219 65.7187 65.4375 67.7031C60.9063 70.7187 54.375 72.7187 46.0938 73.625C43.3594 73.9218 35.9063 73.875 33.0469 73.5312C23.2813 72.3906 15.9531 69.625 11.9531 65.5625C10.4063 64 9.62502 62.5625 9.32814 60.7031C9.17189 59.6562 9.07814 59.4531 8.82814 59.4062C8.65627 59.3906 8.42189 59.4531 8.31252 59.5625Z" fill="#EDC9BD"/>
<path d="M57.5 42.5C57.5 56.8594 44.4183 61 40 61C35.5817 61 22.5 56.8594 22.5 42.5C22.5 37.3618 26.2153 31.7395 28.5 26.5C32.6002 17.0968 36.7891 8.92652 40 7C42.6561 8.59365 46.4532 15.4845 50 23C54.5 29.5 56.0936 36.6402 57.5 42.5Z" fill="#EDC9BD"/>
</svg>
