<svg width="46" height="80" fill="none" xmlns="http://www.w3.org/2000/svg"><path d="M22.844.14c-2.237.19-5.903.654-6.712.878-1.842.465-2.375 2.771-.947 4.096.62.551.672.568 1.91.5l1.274-.052v8.141l-1.962.051c-2.185.07-2.564.241-3.321 1.36-.362.516-.396.757-.396 3.03 0 1.342.052 2.58.103 2.736.138.327.947.774 1.446.774.31 0 .344.104.344.912v.895l-2.495.844c-1.412.465-3.047 1.17-3.787 1.6-1.463.861-3.511 2.703-4.63 4.183C1.261 33.323-.2 38.16.022 42.222c.052 1.101 1.136 7.538 3.03 18.071 3.235 17.9 3.098 17.366 4.543 18.605C8.903 80.019 8.628 80 22.845 80c14.25 0 13.94.017 15.266-1.119 1.394-1.187 1.325-.93 4.509-18.588 1.6-8.898 2.978-16.85 3.046-17.658.241-3.064-.499-6.678-1.979-9.707-1.015-2.066-2.117-3.546-3.77-5.112-1.703-1.6-3.441-2.565-6.35-3.528l-2.461-.81v-.912c0-.808.034-.912.344-.912.5 0 1.308-.447 1.446-.774.051-.155.103-1.394.103-2.737 0-2.272-.034-2.513-.379-3.029-.774-1.119-1.153-1.29-3.339-1.36l-1.962-.051V4.736l3.408.12c1.859.052 4.32.224 5.456.362 3.786.482 4.578.499 5.215.086 1.429-.895 1.377-3.27-.086-4.028C39.556.381 28.369-.307 22.844.14zm10.5 1.205c3.235.241 6.712.689 7.228.93.602.275.843 1.032.499 1.617-.224.413-.361.465-1.188.465-.516 0-2.1-.155-3.528-.344-3.58-.465-12.306-.482-15.748-.017-4.045.533-4.337.533-4.716.12-.585-.637-.327-1.6.5-1.91.464-.172 4.354-.672 6.643-.844 2.65-.206 7.676-.206 10.31-.017zm-7.23 7.917v4.475h-6.54V5.338l1.033-.12c1.256-.138 3.976-.379 4.87-.413l.638-.018v4.475zm5.267 6.248c.396.465.413.602.413 2.72v2.22h-17.9v-2.204c0-2.34.138-2.822.93-3.132.19-.086 3.907-.138 8.244-.12l7.9.034.413.482zm-1.446 7.47.052 1.342 2.754.947c3.838 1.342 5.026 2.013 6.988 4.079 3.252 3.373 5.094 8.52 4.715 13.114-.086 1.17-5.456 31.635-5.886 33.407-.31 1.326-1.29 2.427-2.427 2.754-.877.241-25.696.241-26.574 0-.843-.24-1.617-.912-2.048-1.755-.24-.482-1.204-5.387-3.184-16.385C2.776 51.86 1.417 44.149 1.313 43.34c-.361-2.633.155-6.144 1.291-8.932 1.033-2.548 3.167-5.267 5.353-6.816 1.48-1.05 1.927-1.256 4.991-2.323l2.754-.947.052-1.342.051-1.326h14.079l.051 1.326z" fill="#EDC9BD"/><path d="M39.401 8.694c-.172.276-.722 1.17-1.221 1.997-2.169 3.717-3.219 6.35-3.064 7.727.224 1.808 1.136 3.116 2.736 3.907 2.875 1.446 6.128-.069 6.937-3.218.258-.964.258-1.17.017-2.151-.327-1.291-2.1-4.957-3.442-7.143-1.085-1.738-1.395-1.91-1.962-1.119zm1.98 3.614c1.996 3.598 2.547 5.164 2.255 6.455-.242 1.118-.913 1.962-1.963 2.478-2.805 1.377-5.937-.998-5.249-3.959.327-1.394 3.236-7.16 3.614-7.16.07 0 .689.982 1.343 2.187z" fill="#EDC9BD"/><path d="M44.703 16.766c0 3.042-1.973 5.508-4.407 5.508-2.433 0-4.405-2.466-4.405-5.508 1.652-2.753 1.972-6.609 4.406-6.609 2.433 0 2.203 3.305 4.406 6.61zM42.5 56.972c-4.407 26.436-.551 22.03-20.378 22.03-19.828 0-13.77 1.652-19.277-22.03-1.101-13.218-8.812-6.059 19.277-7.711 28.088-1.652 23.131-6.058 20.377 7.71z" fill="#EDC9BD"/></svg>