<svg width="46" height="80" viewBox="0 0 46 80" fill="none" xmlns="http://www.w3.org/2000/svg">
<path d="M22.8444 0.140343C20.607 0.329666 16.941 0.794365 16.1321 1.0181C14.2905 1.48281 13.757 3.7891 15.1855 5.11436C15.8051 5.66512 15.8567 5.68233 17.0959 5.61348L18.3695 5.56184V9.62367V13.7027L16.4075 13.7543C14.2217 13.8232 13.843 13.9953 13.0857 15.114C12.7243 15.6304 12.6899 15.8713 12.6899 18.1432C12.6899 19.4856 12.7415 20.7249 12.7931 20.8798C12.9308 21.2068 13.7398 21.6543 14.2389 21.6543C14.5487 21.6543 14.5831 21.7575 14.5831 22.5664V23.4614L12.0875 24.3048C10.6762 24.7695 9.04111 25.4751 8.30103 25.9054C6.83809 26.766 4.78996 28.6075 3.67124 30.0877C1.26168 33.3234 -0.201264 38.1597 0.0224811 42.2216C0.0741145 43.3231 1.15842 49.76 3.05164 60.2932C6.28733 78.1928 6.14964 77.6593 7.59538 78.8985C8.90343 80.0172 8.62805 80 22.8444 80C37.0953 80 36.7855 80.0172 38.1107 78.8813C39.5048 77.6937 39.436 77.9519 42.62 60.2932C44.2207 51.3951 45.5976 43.4435 45.6664 42.6346C45.9074 39.571 45.1673 35.9567 43.6871 32.9275C42.6717 30.8622 41.5702 29.382 39.9179 27.8158C38.214 26.2152 36.4757 25.2514 33.567 24.2876L31.1058 23.4786V22.5664C31.1058 21.7575 31.1402 21.6543 31.45 21.6543C31.9491 21.6543 32.7581 21.2068 32.8957 20.8798C32.9474 20.7249 32.999 19.4856 32.999 18.1432C32.999 15.8713 32.9646 15.6304 32.6204 15.114C31.8459 13.9953 31.4672 13.8232 29.2814 13.7543L27.3193 13.7027V9.21061V4.73571L30.7271 4.85619C32.5859 4.90782 35.0471 5.07993 36.1831 5.21762C39.9695 5.69954 40.7612 5.71674 41.398 5.30368C42.8266 4.4087 42.7749 2.03356 41.312 1.27628C39.5564 0.381294 28.3692 -0.307152 22.8444 0.140343ZM33.3432 1.34512C36.5789 1.58607 40.0556 2.03356 40.5719 2.27452C41.1743 2.5499 41.4153 3.30719 41.071 3.89236C40.8473 4.30544 40.7096 4.35707 39.8835 4.35707C39.3671 4.35707 37.7837 4.20216 36.3552 4.01285C32.7753 3.54814 24.0492 3.53093 20.607 3.99564C16.5624 4.52918 16.2698 4.52918 15.8911 4.11611C15.306 3.4793 15.5641 2.51548 16.3903 2.20567C16.855 2.03356 20.7447 1.53444 23.0338 1.36233C25.6843 1.1558 30.7099 1.1558 33.3432 1.34512ZM26.1146 9.26224V13.7371H22.8444H19.5743V9.53762V5.3381L20.607 5.21762C21.8634 5.07993 24.5828 4.83898 25.4777 4.80456L26.1146 4.78735V9.26224ZM31.3812 15.5099C31.777 15.9746 31.7942 16.1123 31.7942 18.2292V20.4495H22.8444H13.8947V18.2464C13.8947 15.9057 14.0323 15.4238 14.8241 15.114C15.0134 15.028 18.731 14.9763 23.0682 14.9935L30.9681 15.028L31.3812 15.5099ZM29.9354 22.9795L29.9871 24.322L32.7408 25.2686C36.5789 26.6111 37.7665 27.2823 39.7286 29.3476C42.9815 32.721 44.8231 37.8671 44.4444 42.4625C44.3584 43.6329 38.9885 74.0966 38.5582 75.8693C38.2484 77.1946 37.2674 78.2961 36.1314 78.6231C35.2537 78.8641 10.4352 78.8641 9.55745 78.6231C8.7141 78.3821 7.9396 77.7109 7.50932 76.8676C7.26837 76.3856 6.30454 71.4805 4.32526 60.4826C2.77626 51.8598 1.41658 44.1492 1.31332 43.3403C0.951882 40.707 1.46822 37.1959 2.60415 34.4077C3.63682 31.8605 5.771 29.1411 7.95681 27.5921C9.43697 26.5422 9.88446 26.3357 12.948 25.2686L15.7018 24.322L15.7535 22.9795L15.8051 21.6543H22.8444H29.8838L29.9354 22.9795Z" fill="#FFC0CB"/>
<path d="M39.4015 8.69415C39.2294 8.96952 38.6787 9.8645 38.1796 10.6906C36.011 14.4082 34.9611 17.0415 35.116 18.4184C35.3397 20.2256 36.2519 21.5336 37.8525 22.3254C40.7268 23.7711 43.9797 22.2565 44.7886 19.1069C45.0468 18.1431 45.0468 17.9365 44.8058 16.9555C44.4788 15.6647 42.7061 11.9987 41.3636 9.81287C40.2793 8.07454 39.9695 7.90243 39.4015 8.69415ZM41.3808 12.3085C43.3773 15.9056 43.9281 17.4718 43.6355 18.7627C43.3945 19.8814 42.7233 20.7247 41.6734 21.2411C38.868 22.6179 35.7356 20.2428 36.424 17.2825C36.751 15.8884 39.6597 10.1227 40.0384 10.1227C40.1072 10.1227 40.7268 11.1037 41.3808 12.3085Z" fill="#FFC0CB"/>
<path d="M44.7026 16.7663C44.7026 19.808 42.7299 22.2739 40.2965 22.2739C37.8631 22.2739 35.8905 19.808 35.8905 16.7663C37.5427 14.0125 37.8631 10.1572 40.2965 10.1572C42.7299 10.1572 42.4995 13.4618 44.7026 16.7663Z" fill="#FFC0CB"/>
<path d="M42.4995 56.9717C38.0935 83.4081 41.9488 79.002 22.1215 79.002C2.29432 79.002 8.35267 80.6543 2.84509 56.9718C1.74358 43.7537 -5.96699 50.9132 22.1216 49.261C50.2101 47.6087 45.2533 43.2027 42.4995 56.9717Z" fill="#FFC0CB"/>
</svg>
