<svg width="32" height="32" fill="none" xmlns="http://www.w3.org/2000/svg"><path d="M16 7.677c-4.516 0-8.258 3.678-8.258 8.259A8.233 8.233 0 0 0 16 24.194c4.58 0 8.258-3.742 8.258-8.258 0-4.517-3.742-8.259-8.258-8.259zm0 13.549c-2.903 0-5.29-2.387-5.29-5.29 0-2.904 2.387-5.29 5.29-5.29s5.29 2.386 5.29 5.29c0 2.903-2.387 5.29-5.29 5.29zM24.58 9.355a1.871 1.871 0 1 0 0-3.742 1.871 1.871 0 0 0 0 3.742z" fill="#fff"/><path d="M29.42 2.645C27.741.903 25.354 0 22.644 0H9.355C3.742 0 0 3.742 0 9.355V22.58c0 2.774.903 5.16 2.71 6.903C4.452 31.16 6.774 32 9.42 32h13.16c2.775 0 5.097-.903 6.775-2.516C31.097 27.806 32 25.419 32 22.645V9.355c0-2.71-.903-5.032-2.58-6.71zm-.259 20c0 2-.71 3.613-1.87 4.71-1.162 1.097-2.775 1.677-4.71 1.677H9.419c-1.935 0-3.548-.58-4.71-1.677-1.16-1.161-1.741-2.774-1.741-4.774V9.355c0-1.936.58-3.549 1.742-4.71 1.096-1.097 2.774-1.677 4.71-1.677h13.29c1.935 0 3.548.58 4.71 1.742 1.096 1.161 1.741 2.774 1.741 4.645v13.29z" fill="#fff"/></svg>