<svg width="121" height="39" viewBox="0 0 121 39" fill="none" xmlns="http://www.w3.org/2000/svg">
<path d="M0.2 38V0.699997H0.25L19.2 27.6L17.15 27.2L36.05 0.699997H36.15V38H31.35V11.7L31.65 14.15L18 33.45H17.9L4.05 14.15L4.9 11.9V38H0.2ZM43.3379 27.45C43.3379 25.3833 43.8212 23.5167 44.7879 21.85C45.7879 20.1833 47.1546 18.8667 48.8879 17.9C50.6212 16.9333 52.5879 16.45 54.7879 16.45C57.0546 16.45 59.0379 16.9333 60.7379 17.9C62.4379 18.8667 63.7546 20.1833 64.6879 21.85C65.6212 23.5167 66.0879 25.3833 66.0879 27.45C66.0879 29.5167 65.6212 31.4 64.6879 33.1C63.7546 34.7667 62.4212 36.0833 60.6879 37.05C58.9879 38.0167 57.0046 38.5 54.7379 38.5C52.5379 38.5 50.5712 38.05 48.8379 37.15C47.1379 36.2167 45.7879 34.9333 44.7879 33.3C43.8212 31.6333 43.3379 29.6833 43.3379 27.45ZM47.9879 27.5C47.9879 28.8333 48.2879 30.05 48.8879 31.15C49.4879 32.2167 50.2879 33.0667 51.2879 33.7C52.3212 34.3333 53.4546 34.65 54.6879 34.65C55.9879 34.65 57.1379 34.3333 58.1379 33.7C59.1712 33.0667 59.9712 32.2167 60.5379 31.15C61.1046 30.05 61.3879 28.8333 61.3879 27.5C61.3879 26.1667 61.1046 24.9667 60.5379 23.9C59.9712 22.8 59.1712 21.9333 58.1379 21.3C57.1379 20.6333 55.9879 20.3 54.6879 20.3C53.4212 20.3 52.2712 20.6333 51.2379 21.3C50.2379 21.9667 49.4379 22.85 48.8379 23.95C48.2712 25.0167 47.9879 26.2 47.9879 27.5ZM76.284 17.3L76.684 22.35L76.484 21.55C77.1507 20.0167 78.234 18.8 79.734 17.9C81.234 16.9667 82.9673 16.5 84.934 16.5C86.9007 16.5 88.5007 17.0833 89.734 18.25C91.0007 19.3833 91.6507 20.8667 91.684 22.7V38H86.984V24.35C86.9507 23.2167 86.6173 22.3 85.984 21.6C85.384 20.8667 84.434 20.5 83.134 20.5C81.934 20.5 80.8507 20.8333 79.884 21.5C78.9173 22.1667 78.1507 23.0833 77.584 24.25C77.0507 25.4167 76.784 26.7667 76.784 28.3V38H72.134V17.3H76.284ZM108.121 38.5C106.187 38.5 104.421 38.0833 102.821 37.25C101.254 36.4167 100.004 35.2 99.0707 33.6C98.1707 31.9667 97.7207 29.9833 97.7207 27.65C97.7207 25.35 98.204 23.3667 99.1707 21.7C100.137 20 101.421 18.7 103.021 17.8C104.654 16.9 106.437 16.45 108.371 16.45C110.304 16.45 111.937 16.9 113.271 17.8C114.604 18.6667 115.621 19.7 116.321 20.9L116.021 21.7L116.471 17.3H120.771V38H116.121V32.6L116.621 33.8C116.487 34.1333 116.187 34.5667 115.721 35.1C115.287 35.6 114.687 36.1167 113.921 36.65C113.187 37.1833 112.337 37.6333 111.371 38C110.404 38.3333 109.321 38.5 108.121 38.5ZM109.371 34.65C110.537 34.65 111.587 34.4333 112.521 34C113.454 33.5667 114.221 32.9667 114.821 32.2C115.454 31.4 115.887 30.45 116.121 29.35V25.3C115.854 24.3 115.387 23.4333 114.721 22.7C114.054 21.9333 113.254 21.35 112.321 20.95C111.387 20.5167 110.354 20.3 109.221 20.3C107.987 20.3 106.854 20.6 105.821 21.2C104.787 21.8 103.954 22.6333 103.321 23.7C102.721 24.7667 102.421 26.0167 102.421 27.45C102.421 28.7833 102.737 30 103.371 31.1C104.004 32.2 104.854 33.0667 105.921 33.7C106.987 34.3333 108.137 34.65 109.371 34.65Z" fill="white"/>
</svg>
