<svg width="121" height="39" fill="none" xmlns="http://www.w3.org/2000/svg"><path d="M.2 38V.7h.05L19.2 27.6l-2.05-.4L36.05.7h.1V38h-4.8V11.7l.3 2.45L18 33.45h-.1L4.05 14.15l.85-2.25V38H.2zm43.138-10.55c0-2.067.483-3.933 1.45-5.6 1-1.667 2.367-2.983 4.1-3.95 1.733-.967 3.7-1.45 5.9-1.45 2.267 0 4.25.483 5.95 1.45 1.7.967 3.017 2.283 3.95 3.95.933 1.667 1.4 3.533 1.4 5.6 0 2.067-.467 3.95-1.4 5.65-.933 1.667-2.267 2.983-4 3.95-1.7.967-3.683 1.45-5.95 1.45-2.2 0-4.167-.45-5.9-1.35a10.703 10.703 0 0 1-4.05-3.85c-.967-1.667-1.45-3.617-1.45-5.85zm4.65.05c0 1.333.3 2.55.9 3.65a7.058 7.058 0 0 0 2.4 2.55 6.383 6.383 0 0 0 3.4.95c1.3 0 2.45-.317 3.45-.95a6.538 6.538 0 0 0 2.4-2.55c.567-1.1.85-2.317.85-3.65 0-1.333-.283-2.533-.85-3.6a6.452 6.452 0 0 0-2.4-2.6c-1-.667-2.15-1-3.45-1-1.267 0-2.417.333-3.45 1-1 .667-1.8 1.55-2.4 2.65-.567 1.067-.85 2.25-.85 3.55zm28.296-10.2.4 5.05-.2-.8c.667-1.533 1.75-2.75 3.25-3.65 1.5-.933 3.233-1.4 5.2-1.4s3.567.583 4.8 1.75c1.267 1.133 1.917 2.617 1.95 4.45V38h-4.7V24.35c-.033-1.133-.367-2.05-1-2.75-.6-.733-1.55-1.1-2.85-1.1-1.2 0-2.283.333-3.25 1-.967.667-1.733 1.583-2.3 2.75-.533 1.167-.8 2.517-.8 4.05V38h-4.65V17.3h4.15zm31.837 21.2c-1.934 0-3.7-.417-5.3-1.25-1.567-.833-2.817-2.05-3.75-3.65-.9-1.633-1.35-3.617-1.35-5.95 0-2.3.483-4.283 1.45-5.95.966-1.7 2.25-3 3.85-3.9 1.633-.9 3.416-1.35 5.35-1.35 1.933 0 3.566.45 4.9 1.35 1.333.867 2.35 1.9 3.05 3.1l-.3.8.45-4.4h4.3V38h-4.65v-5.4l.5 1.2c-.134.333-.434.767-.9 1.3-.434.5-1.034 1.017-1.8 1.55-.734.533-1.584.983-2.55 1.35-.967.333-2.05.5-3.25.5zm1.25-3.85c1.166 0 2.216-.217 3.15-.65a6.165 6.165 0 0 0 2.3-1.8c.633-.8 1.066-1.75 1.3-2.85V25.3a6.173 6.173 0 0 0-1.4-2.6 6.577 6.577 0 0 0-2.4-1.75c-.934-.433-1.967-.65-3.1-.65-1.234 0-2.367.3-3.4.9a6.905 6.905 0 0 0-2.5 2.5c-.6 1.067-.9 2.317-.9 3.75 0 1.333.316 2.55.95 3.65a7.063 7.063 0 0 0 2.55 2.6 6.638 6.638 0 0 0 3.45.95z" fill="#fff"/></svg>