<svg width="36" height="22" viewBox="0 0 36 22" fill="none" xmlns="http://www.w3.org/2000/svg">
<path d="M17.9992 2.3525C19.3243 3.38089 20.3955 4.69384 21.1316 6.19198C21.8676 7.69013 22.2494 9.33419 22.2479 10.9997C22.2489 12.6648 21.8669 14.3082 21.1308 15.8057C20.3948 17.3033 19.3239 18.6157 17.9992 19.6438C16.6743 18.6155 15.6032 17.3028 14.8672 15.805C14.1311 14.3072 13.7492 12.6634 13.7505 10.9981C13.7492 9.33285 14.1311 7.6891 14.8672 6.19126C15.6032 4.69341 16.6743 3.38072 17.9992 2.3525ZM16.5753 1.41075C15.1726 2.59452 14.0467 4.06532 13.2752 5.72147C12.5038 7.37762 12.1053 9.17964 12.1073 11.003C12.1054 12.8255 12.5036 14.6268 13.2744 16.2823C14.0453 17.9378 15.1704 19.4083 16.572 20.592C14.8788 21.5318 12.9662 22.017 11.0244 21.9995C9.08264 21.982 7.17932 21.4624 5.50365 20.4922C3.82798 19.522 2.43831 18.1352 1.47278 16.4694C0.507261 14.8037 -0.000491084 12.9171 3.564e-07 10.9972C0.000491797 9.07733 0.50921 7.19101 1.47559 5.52576C2.44196 3.8605 3.83234 2.47431 5.50851 1.50498C7.18468 0.535652 9.08826 0.0169396 11.03 0.000407915C12.9718 -0.0161238 14.8841 0.470101 16.5769 1.41075H16.5753ZM19.4263 20.592C20.828 19.4083 21.9531 17.9378 22.7239 16.2823C23.4948 14.6268 23.893 12.8255 23.8911 11.003C23.893 9.17964 23.4945 7.37762 22.7231 5.72147C21.9517 4.06532 20.8257 2.59452 19.4231 1.41075C21.1159 0.470101 23.0282 -0.0161238 24.97 0.000407915C26.9117 0.0169396 28.8153 0.535652 30.4915 1.50498C32.1677 2.47431 33.558 3.8605 34.5244 5.52576C35.4908 7.19101 35.9995 9.07733 36 10.9972C36.0005 12.9171 35.4927 14.8037 34.5272 16.4694C33.5617 18.1352 32.172 19.522 30.4964 20.4922C28.8207 21.4624 26.9174 21.982 24.9756 21.9995C23.0338 22.017 21.1212 21.5318 19.428 20.592H19.4263Z" fill="white" fill-opacity="0.5"/>
</svg>
