<svg width="1110" height="1110" viewBox="0 0 1110 1110" fill="none" xmlns="http://www.w3.org/2000/svg">
<rect width="1110" height="1110" rx="555" fill="#343434"/>
<path d="M934.171 287.198L189.769 287.198C175.261 287.213 161.352 292.22 151.094 301.12C140.835 310.02 135.066 322.087 135.051 334.673L135.051 783.08C135.066 795.666 140.835 807.733 151.094 816.633C161.352 825.533 175.261 830.54 189.769 830.555H934.171C948.68 830.541 962.591 825.535 972.851 816.635C983.111 807.734 988.882 795.667 988.897 783.08V334.673C988.882 322.086 983.111 310.018 972.851 301.118C962.591 292.218 948.68 287.211 934.171 287.198ZM189.769 313.188L934.171 313.188C940.738 313.194 947.033 315.459 951.677 319.487C956.32 323.515 958.931 328.977 958.937 334.673V391.159L165.01 391.159V334.673C165.016 328.978 167.626 323.517 172.268 319.489C176.91 315.461 183.204 313.195 189.769 313.188V313.188ZM958.937 495.119L165.01 495.119V417.149L958.937 417.149V495.119ZM934.171 804.565H189.769C183.204 804.558 176.91 802.292 172.268 798.264C167.626 794.236 165.016 788.775 165.01 783.08L165.01 521.109H958.937V783.08C958.931 788.776 956.32 794.238 951.677 798.266C947.033 802.294 940.738 804.559 934.171 804.565V804.565Z" fill="white"/>
<path d="M301.852 674.614H247.309C243.336 674.614 239.526 675.983 236.717 678.42C233.907 680.857 232.329 684.162 232.329 687.609C232.329 691.055 233.907 694.36 236.717 696.798C239.526 699.235 243.336 700.604 247.309 700.604H301.852C305.825 700.604 309.635 699.235 312.444 696.798C315.253 694.36 316.832 691.055 316.832 687.609C316.832 684.162 315.253 680.857 312.444 678.42C309.635 675.983 305.825 674.614 301.852 674.614Z" fill="white"/>
<path d="M446.857 674.614H392.313C388.34 674.614 384.53 675.983 381.72 678.42C378.911 680.857 377.333 684.162 377.333 687.609C377.333 691.055 378.911 694.36 381.72 696.798C384.53 699.235 388.34 700.604 392.313 700.604H446.857C450.83 700.604 454.64 699.235 457.449 696.798C460.258 694.36 461.836 691.055 461.836 687.609C461.836 684.162 460.258 680.857 457.449 678.42C454.64 675.983 450.83 674.614 446.857 674.614Z" fill="white"/>
<path d="M591.844 674.614H537.301C533.328 674.614 529.518 675.983 526.709 678.42C523.899 680.857 522.321 684.162 522.321 687.609C522.321 691.055 523.899 694.36 526.709 696.798C529.518 699.235 533.328 700.604 537.301 700.604H591.844C595.817 700.604 599.627 699.235 602.436 696.798C605.246 694.36 606.824 691.055 606.824 687.609C606.824 684.162 605.246 680.857 602.436 678.42C599.627 675.983 595.817 674.614 591.844 674.614Z" fill="white"/>
<path d="M825.859 622.633C810.437 622.612 795.391 626.764 782.818 634.511C771.603 627.648 758.43 623.591 744.738 622.781C731.046 621.971 717.36 624.441 705.175 629.92C692.991 635.399 682.776 643.677 675.646 653.85C668.516 664.023 664.744 675.7 664.744 687.606C664.744 699.512 668.514 711.189 675.644 721.362C682.773 731.535 692.988 739.814 705.172 745.293C717.357 750.773 731.042 753.243 744.734 752.434C758.427 751.625 771.6 747.568 782.815 740.705C795.39 748.451 810.436 752.604 825.859 752.584C845.723 752.584 864.774 745.738 878.821 733.553C892.867 721.367 900.758 704.841 900.758 687.608C900.758 670.376 892.867 653.849 878.821 641.664C864.774 629.478 845.723 622.633 825.859 622.633V622.633ZM694.962 687.608C694.962 679.898 697.597 672.36 702.535 665.949C707.473 659.538 714.492 654.541 722.703 651.591C730.915 648.64 739.951 647.868 748.668 649.372C757.386 650.876 765.393 654.589 771.678 660.041C777.963 665.494 782.243 672.44 783.977 680.003C785.711 687.565 784.821 695.404 781.419 702.527C778.018 709.651 772.258 715.739 764.868 720.023C757.478 724.307 748.789 726.593 739.901 726.593C727.986 726.582 716.563 722.471 708.138 715.163C699.713 707.854 694.974 697.944 694.961 687.608H694.962ZM825.859 726.593C818.04 726.557 810.371 724.731 803.624 721.301C810.926 711.206 814.799 699.529 814.8 687.61C814.8 675.692 810.927 664.014 803.626 653.918C810.371 650.487 818.04 648.66 825.859 648.623C837.778 648.623 849.208 652.73 857.636 660.041C866.064 667.352 870.798 677.268 870.798 687.608C870.798 697.947 866.064 707.863 857.636 715.175C849.208 722.486 837.778 726.593 825.859 726.593V726.593Z" fill="white"/>
</svg>
