<svg width="1110" height="1110" fill="none" xmlns="http://www.w3.org/2000/svg"><rect width="1110" height="1110" rx="555" fill="#343434"/><path d="M934.171 287.198H189.769c-14.508.015-28.417 5.022-38.675 13.922-10.259 8.9-16.028 20.967-16.043 33.553V783.08c.015 12.586 5.784 24.653 16.043 33.553 10.258 8.9 24.167 13.907 38.675 13.922h744.402c14.509-.014 28.42-5.02 38.68-13.92 10.26-8.901 16.031-20.968 16.046-33.555V334.673c-.015-12.587-5.786-24.655-16.046-33.555-10.26-8.9-24.171-13.907-38.68-13.92zm-744.402 25.99h744.402c6.567.006 12.862 2.271 17.506 6.299 4.643 4.028 7.254 9.49 7.26 15.186v56.486H165.01v-56.486c.006-5.695 2.616-11.156 7.258-15.184 4.642-4.028 10.936-6.294 17.501-6.301zm769.168 181.931H165.01v-77.97h793.927v77.97zm-24.766 309.446H189.769c-6.565-.007-12.859-2.273-17.501-6.301-4.642-4.028-7.252-9.489-7.258-15.184V521.109h793.927V783.08c-.006 5.696-2.617 11.158-7.26 15.186-4.644 4.028-10.939 6.293-17.506 6.299z" fill="#fff"/><path d="M301.852 674.614h-54.543c-3.973 0-7.783 1.369-10.592 3.806-2.81 2.437-4.388 5.742-4.388 9.189 0 3.446 1.578 6.751 4.388 9.189 2.809 2.437 6.619 3.806 10.592 3.806h54.543c3.973 0 7.783-1.369 10.592-3.806 2.809-2.438 4.388-5.743 4.388-9.189 0-3.447-1.579-6.752-4.388-9.189-2.809-2.437-6.619-3.806-10.592-3.806zM446.857 674.614h-54.544c-3.973 0-7.783 1.369-10.593 3.806-2.809 2.437-4.387 5.742-4.387 9.189 0 3.446 1.578 6.751 4.387 9.189 2.81 2.437 6.62 3.806 10.593 3.806h54.544c3.973 0 7.783-1.369 10.592-3.806 2.809-2.438 4.387-5.743 4.387-9.189 0-3.447-1.578-6.752-4.387-9.189-2.809-2.437-6.619-3.806-10.592-3.806zM591.844 674.614h-54.543c-3.973 0-7.783 1.369-10.592 3.806-2.81 2.437-4.388 5.742-4.388 9.189 0 3.446 1.578 6.751 4.388 9.189 2.809 2.437 6.619 3.806 10.592 3.806h54.543c3.973 0 7.783-1.369 10.592-3.806 2.81-2.438 4.388-5.743 4.388-9.189 0-3.447-1.578-6.752-4.388-9.189-2.809-2.437-6.619-3.806-10.592-3.806zM825.859 622.633c-15.422-.021-30.468 4.131-43.041 11.878-11.215-6.863-24.388-10.92-38.08-11.73-13.692-.81-27.378 1.66-39.563 7.139-12.184 5.479-22.399 13.757-29.529 23.93-7.13 10.173-10.902 21.85-10.902 33.756 0 11.906 3.77 23.583 10.9 33.756 7.129 10.173 17.344 18.452 29.528 23.931 12.185 5.48 25.87 7.95 39.562 7.141 13.693-.809 26.866-4.866 38.081-11.729 12.575 7.746 27.621 11.899 43.044 11.879 19.864 0 38.915-6.846 52.962-19.031 14.046-12.186 21.937-28.712 21.937-45.945 0-17.232-7.891-33.759-21.937-45.944-14.047-12.186-33.098-19.031-52.962-19.031zm-130.897 64.975c0-7.71 2.635-15.248 7.573-21.659 4.938-6.411 11.957-11.408 20.168-14.358 8.212-2.951 17.248-3.723 25.965-2.219 8.718 1.504 16.725 5.217 23.01 10.669 6.285 5.453 10.565 12.399 12.299 19.962 1.734 7.562.844 15.401-2.558 22.524-3.401 7.124-9.161 13.212-16.551 17.496-7.39 4.284-16.079 6.57-24.967 6.57-11.915-.011-23.338-4.122-31.763-11.43-8.425-7.309-13.164-17.219-13.177-27.555h.001zm130.897 38.985c-7.819-.036-15.488-1.862-22.235-5.292 7.302-10.095 11.175-21.772 11.176-33.691 0-11.918-3.873-23.596-11.174-33.692 6.745-3.431 14.414-5.258 22.233-5.295 11.919 0 23.349 4.107 31.777 11.418 8.428 7.311 13.162 17.227 13.162 27.567 0 10.339-4.734 20.255-13.162 27.567-8.428 7.311-19.858 11.418-31.777 11.418z" fill="#fff"/></svg>