<svg width="23" height="23" viewBox="0 0 23 23" fill="none" xmlns="http://www.w3.org/2000/svg">
<path d="M7.46128 21.007C7.32781 21.1431 7.19288 21.2883 7.07627 21.4138C7.02253 21.4716 6.97268 21.5253 6.92865 21.5719C6.77173 21.7381 6.6593 21.848 6.56422 21.9237C6.56289 21.9247 6.56156 21.9258 6.56025 21.9268C6.55949 21.9191 6.55884 21.9115 6.5583 21.9041C6.55672 21.8826 6.55635 21.8667 6.55628 21.859C6.55628 21.8585 6.55627 21.8581 6.55627 21.8577L6.55663 21.8487L6.55667 21.8296L6.56136 19.512L6.56339 18.5099H5.69153C3.29791 17.8323 2.15261 16.3502 1.57198 14.6813C0.956703 12.9127 0.980916 10.941 1.01446 9.43042C1.07853 6.54523 1.66755 4.47328 3.09827 3.10583C4.42195 1.96397 6.53627 1.40781 8.47632 1.1658C9.42533 1.04741 10.2843 1.00967 10.9059 1.00173C11.2161 0.997774 11.4653 1.00125 11.635 1.00561C11.7199 1.00778 11.7847 1.01018 11.8271 1.01196L11.8738 1.01408L11.8839 1.0146L11.885 1.01466L11.8854 1.01468L11.8856 1.01469L11.8856 1.01469L11.9113 1.01615L11.9376 1.01626C17.151 1.03777 19.3464 2.64151 19.7483 2.99267L19.7591 3.00202L19.77 3.01107C21.3562 4.31911 22.5096 7.50123 21.7735 13.183L21.7733 13.1839C21.4516 15.6852 20.3264 16.966 19.2593 17.6756C18.361 18.273 17.5183 18.4803 16.9309 18.6248C16.7744 18.6633 16.636 18.6973 16.5196 18.7331M7.46128 21.007C7.46153 21.0067 7.46178 21.0065 7.46203 21.0062L8.17601 21.7063L7.46047 21.0078C7.46074 21.0075 7.46101 21.0073 7.46128 21.007ZM7.46128 21.007C7.85967 20.5988 8.416 19.9923 8.84941 19.518L9.17937 19.1569L9.66697 19.1957C13.4126 19.494 16.2713 18.8074 16.5196 18.7331M16.5196 18.7331C16.5185 18.7334 16.5174 18.7337 16.5164 18.7341L16.8111 19.6896L16.5213 18.7325C16.5208 18.7327 16.5202 18.7329 16.5196 18.7331ZM6.5976 22.0968C6.60014 22.1011 6.60124 22.1037 6.60115 22.1039C6.60107 22.1042 6.5998 22.102 6.5976 22.0968Z" stroke="white" stroke-width="2"/>
<path d="M14.4808 9.26007C14.4997 9.64632 13.8887 9.67332 13.8698 9.28697C13.8176 8.29881 13.3297 7.81826 12.3256 7.76436C11.9182 7.74186 11.9561 7.16246 12.3587 7.18496C13.6803 7.25231 14.4145 7.97096 14.4808 9.26007Z" fill="white"/>
<path d="M15.442 9.76753C15.4893 7.86308 14.2342 6.37188 11.8516 6.20573C11.4489 6.17878 11.4916 5.59933 11.8943 5.62628C14.6416 5.81498 16.1052 7.60713 16.0531 9.78103C16.0483 10.1673 15.4325 10.1494 15.442 9.76753Z" fill="white"/>
<path d="M17.6688 10.3694C17.6735 10.7557 17.0577 10.7602 17.0577 10.3739C17.0293 6.71328 14.4573 4.71898 11.3357 4.69653C10.9331 4.69203 10.9331 4.11713 11.3357 4.11713C14.8267 4.13958 17.6356 6.42578 17.6688 10.3694Z" fill="white"/>
<path d="M17.1332 14.7756V14.7847C16.6216 15.6381 15.6648 16.5814 14.6796 16.2804L14.6701 16.2669C13.6706 16.0019 11.3166 14.8521 9.82922 13.7291C9.06187 13.1542 8.36079 12.476 7.8208 11.8247C7.33296 11.2452 6.84037 10.558 6.36196 9.73157C5.35306 8.00227 5.13044 7.22972 5.13044 7.22972C4.81307 6.29547 5.80304 5.38812 6.7077 4.90307H6.71725C7.15299 4.68742 7.56981 4.75932 7.84927 5.07817C7.84927 5.07817 8.43667 5.74287 8.68765 6.07087C8.92451 6.37627 9.24188 6.86582 9.40766 7.13982C9.69661 7.62937 9.51654 8.12797 9.23239 8.33452L8.66398 8.76577C8.37508 8.98582 8.41294 9.39457 8.41294 9.39457C8.41294 9.39457 9.25607 12.4175 12.406 13.1811C12.406 13.1811 12.8371 13.217 13.0691 12.943L13.5239 12.404C13.7417 12.1345 14.2676 11.9639 14.7838 12.2379C15.4802 12.6106 16.3659 13.1901 16.9533 13.7156C17.2848 13.9716 17.3606 14.3625 17.1332 14.7756Z" fill="white"/>
</svg>
