<svg width="60" height="19" viewBox="0 0 60 19" fill="none" xmlns="http://www.w3.org/2000/svg">
<path d="M24.6025 0.365234L20.5833 18.8781H25.4551L29.3525 0.365234H24.6025Z" fill="white" fill-opacity="0.5"/>
<path d="M17.5385 0.365418L12.5449 12.9103L10.4743 2.19234C10.2308 0.974393 9.25641 0.365418 8.28205 0.365418H0.121765L0 0.852628C1.70513 1.21801 3.53209 1.82697 4.75004 2.43595C5.48081 2.80133 5.60256 3.1667 5.84615 4.01927L9.62184 18.7565H14.7372L22.5321 0.243652H17.5385V0.365418Z" fill="white" fill-opacity="0.5"/>
<path d="M55.4166 0.365234H51.2756C50.3012 0.365234 49.5705 0.852459 49.2051 1.70502L42.0192 18.8781H47.0127L47.9872 16.0768H54.0769L54.6859 18.8781H59.0705L55.4166 0.365234ZM49.5705 12.3011L52.1281 5.35888L53.5897 12.3011H49.5705Z" fill="white" fill-opacity="0.5"/>
<path d="M35.6863 5.48078C35.6863 4.8718 36.2953 4.14105 37.7568 3.89746C38.4876 3.77566 40.3145 3.77568 42.5069 4.75004L43.3594 0.85258C42.2632 0.487195 40.6799 0 38.853 0C34.103 0 30.8145 2.5577 30.8145 6.08975C30.8145 8.76924 33.2504 10.2308 34.9556 11.0833C36.7825 11.9359 37.3915 12.5449 37.3915 13.3975C37.3915 14.6154 35.9299 15.2244 34.4683 15.2244C32.0324 15.2244 30.6927 14.6154 29.5965 14.0064L28.744 18.0257C29.8401 18.5128 31.9107 19 34.103 19C39.0966 19 42.385 16.5642 42.385 12.6667C42.385 8.0385 35.5645 7.67309 35.6863 5.48078Z" fill="white" fill-opacity="0.5"/>
</svg>
