<svg width="32" height="32" fill="none" xmlns="http://www.w3.org/2000/svg"><path d="M.5 15.36C.5 11.726.501 9.05.777 7c.273-2.036.81-3.38 1.826-4.397C3.619 1.587 4.963 1.05 7 .777 9.05.5 11.726.5 15.36.5h1.28c3.634 0 6.31.001 8.36.277 2.036.273 3.38.81 4.397 1.826C30.413 3.619 30.95 4.963 31.223 7c.276 2.05.277 4.726.277 8.36v1.28c0 3.634-.001 6.31-.277 8.36-.273 2.036-.81 3.38-1.826 4.397-1.016 1.016-2.36 1.553-4.397 1.826-2.05.276-4.726.277-8.36.277h-1.28c-3.634 0-6.31-.001-8.36-.277-2.036-.273-3.38-.81-4.397-1.826C1.587 28.381 1.05 27.037.777 25 .5 22.95.5 20.274.5 16.64v-1.28z" stroke="#fff"/><path d="M16.893 24C10.06 24 6.163 18.745 6 10h3.423c.112 6.418 2.636 9.137 4.634 9.698V10h3.223v5.536c1.974-.239 4.048-2.761 4.747-5.536h3.223c-.537 3.42-2.785 5.942-4.384 6.979 1.599.84 4.16 3.041 5.134 7.021h-3.548c-.762-2.663-2.66-4.723-5.172-5.003V24h-.387z" fill="#fff"/></svg>