<svg width="32" height="32" viewBox="0 0 32 32" fill="none" xmlns="http://www.w3.org/2000/svg">
<path d="M0.5 15.36C0.5 11.7255 0.501062 9.04987 0.776719 6.99957C1.05044 4.96364 1.58665 3.6193 2.60297 2.60297C3.6193 1.58665 4.96364 1.05044 6.99957 0.776719C9.04987 0.501062 11.7255 0.5 15.36 0.5H16.64C20.2745 0.5 22.9501 0.501062 25.0004 0.776719C27.0363 1.05044 28.3807 1.58665 29.3971 2.60298C30.4134 3.6193 30.9496 4.96364 31.2233 6.99957C31.4989 9.04987 31.5 11.7255 31.5 15.36V16.64C31.5 20.2745 31.4989 22.9501 31.2233 25.0004C30.9496 27.0363 30.4134 28.3807 29.397 29.3971C28.3807 30.4134 27.0363 30.9496 25.0004 31.2233C22.9501 31.4989 20.2745 31.5 16.64 31.5H15.36C11.7255 31.5 9.04987 31.4989 6.99957 31.2233C4.96364 30.9496 3.6193 30.4134 2.60297 29.397C1.58665 28.3807 1.05044 27.0363 0.776719 25.0004C0.501062 22.9501 0.5 20.2745 0.5 16.64V15.36Z" stroke="white"/>
<path d="M16.8931 24C10.0599 24 6.1624 18.7447 6 10H9.42286C9.53529 16.4184 12.0587 19.1371 14.0574 19.6977V10H17.2805V15.5355C19.2543 15.2973 21.3277 12.7748 22.0273 10H25.2503C24.7132 13.4194 22.4646 15.9419 20.8656 16.979C22.4646 17.8198 25.0256 20.02 26 24H22.4521C21.6901 21.3373 19.7914 19.2773 17.2805 18.997V24H16.8931Z" fill="white"/>
</svg>
