<svg width="23" height="23" viewBox="0 0 23 23" fill="none" xmlns="http://www.w3.org/2000/svg">
<path fill-rule="evenodd" clip-rule="evenodd" d="M19.6489 3.34242C17.4868 1.18815 14.6115 0.00124912 11.548 0C5.2359 0 0.0985036 5.11243 0.0960399 11.3963C0.0951566 13.4051 0.622493 15.3657 1.62468 17.0941L0 23L6.07083 21.4151C7.74349 22.3231 9.62678 22.8017 11.5434 22.8024H11.5481C11.5485 22.8024 11.5478 22.8024 11.5482 22.8024C17.8596 22.8024 22.9973 17.6894 23 11.4054C23.0011 8.36005 21.811 5.4966 19.6489 3.34242ZM11.548 20.8776H11.5442C9.83629 20.8769 8.16107 20.4202 6.69965 19.5571L6.35212 19.3519L2.7496 20.2923L3.71121 16.7967L3.48487 16.4383C2.53209 14.9301 2.02888 13.1868 2.02962 11.3969C2.03167 6.17404 6.30168 1.9249 11.5519 1.9249C14.0942 1.92568 16.4841 2.91235 18.2812 4.7029C20.0783 6.49345 21.0674 8.87349 21.0664 11.4046C21.0642 16.6279 16.7944 20.8776 11.548 20.8776Z" fill="white"/>
<path fill-rule="evenodd" clip-rule="evenodd" d="M16.769 13.7828C16.4829 13.6403 15.0761 12.9515 14.8138 12.8564C14.5515 12.7613 14.3607 12.7138 14.17 12.9989C13.9793 13.2839 13.4309 13.9254 13.2639 14.1155C13.0971 14.3055 12.9301 14.3294 12.644 14.1867C12.3579 14.0442 11.4359 13.7435 10.343 12.7733C9.49226 12.0182 8.91802 11.0857 8.75104 10.8005C8.58415 10.5155 8.73328 10.3614 8.87655 10.2193C9.00527 10.0917 9.16272 9.88673 9.3058 9.72041C9.44884 9.55419 9.49653 9.43529 9.59192 9.24538C9.68731 9.05528 9.63967 8.88896 9.56808 8.74647C9.49653 8.60393 8.92429 7.20223 8.68587 6.63193C8.45353 6.07672 8.21766 6.15195 8.04199 6.14311C7.87534 6.13483 7.68433 6.13312 7.49359 6.13312C7.30286 6.13312 6.9928 6.20441 6.73057 6.48944C6.4683 6.77456 5.72903 7.46357 5.72903 8.86513C5.72903 10.2669 6.75437 11.621 6.89746 11.811C7.0405 12.0012 8.91518 14.8775 11.7856 16.111C12.4683 16.4045 13.0013 16.5797 13.4168 16.7109C14.1023 16.9277 14.7261 16.897 15.2191 16.8237C15.7689 16.742 16.9121 16.1348 17.1505 15.4697C17.389 14.8044 17.389 14.2342 17.3174 14.1155C17.2459 13.9967 17.0552 13.9254 16.769 13.7828Z" fill="white"/>
</svg>
